<?xml version="1.0" encoding="UTF-8"?>
<svg width="323px" height="234px" viewBox="0 0 323 234" version="1.1" xmlns="http://www.w3.org/2000/svg" xmlns:xlink="http://www.w3.org/1999/xlink">
    <!-- Generator: Sketch 52.5 (67469) - http://www.bohemiancoding.com/sketch -->
    <title>Group 3</title>
    <desc>Created with Sketch.</desc>
    <g id="For-Hospital-v4" stroke="none" stroke-width="1" fill="none" fill-rule="evenodd">
        <g id="404-error-page" transform="translate(-749.000000, -256.000000)">
            <g id="Group-3" transform="translate(749.000000, 256.000000)">
                <path d="M254.386693,95.2814371 L317.05,95.2814371 C320.336094,95.2814371 323,97.9453429 323,101.231437 L323,101.942216 C323,105.22831 320.336094,107.892216 317.05,107.892216 L303.259483,107.892216 C306.455344,117.229473 308.364089,125.85042 308.891525,133.066827 C311.135861,150.757333 309.986704,192.545604 296.01926,212.971085 C279.499239,213.070804 187.627399,212.489515 20.4037407,211.227217 C-2.48952163,152.464881 5.53579677,99.523731 44.4796959,52.4037671 C61.7031845,32.4642969 95.1813523,1.43825192 170.640699,0.0483741279 C170.946409,0.0163943147 171.256757,4.28159712e-13 171.570934,4.28101998e-13 L309.453198,4.28101998e-13 C314.334041,4.27205402e-13 318.290746,3.95670492 318.290746,8.83754778 C318.290746,13.7183907 314.334041,17.6750956 309.453198,17.6750956 L234.380508,17.6750956 L201.125501,17.6750956 C196.531767,17.6750956 192.807809,21.3990531 192.807809,25.9927876 C192.807809,30.5865221 196.531767,34.3104796 201.125501,34.3104796 L228.414427,34.3104796 L274.707979,34.3104796 C279.588822,34.3104796 283.545527,38.2671846 283.545527,43.1480274 C283.545527,48.0288703 279.588822,51.9855752 274.707979,51.9855752 L272.034441,51.9855752 L231.197262,51.9855752 C227.177744,51.9855752 223.919281,55.2440381 223.919281,59.2635557 C223.919281,63.2830734 227.177744,66.5415363 231.197262,66.5415363 L256.924722,66.5415363 L309.45586,66.5415363 C313.762487,66.5415363 317.253697,70.0327465 317.253697,74.3393725 C317.253697,78.6459986 313.762487,82.1372088 309.45586,82.1372088 L291.94478,82.1372088 L256.603632,82.1372088 C252.871223,82.1372088 249.845508,85.1629243 249.845508,88.8953336 C249.845508,91.8512124 251.743187,94.3638645 254.386693,95.2814371 Z M295.494222,34.3104796 L309.967647,34.3104796 C314.84849,34.3104796 318.805195,38.2671846 318.805195,43.1480274 C318.805195,48.0288703 314.84849,51.9855752 309.967647,51.9855752 L295.494222,51.9855752 C290.613379,51.9855752 286.656674,48.0288703 286.656674,43.1480274 C286.656674,38.2671846 290.613379,34.3104796 295.494222,34.3104796 Z" id="Combined-Shape" fill="#D6F0F7"></path>
                <polygon id="Fill-4" fill="#01327F" points="51.0367965 212.982036 227.890483 212.982036 227.890483 211.580838 51.0367965 211.580838"></polygon>
                <polygon id="Fill-5" fill="#01327F" points="292.937229 212.982036 302.919468 212.982036 302.919468 211.580838 292.937229 211.580838"></polygon>
                <polyline id="Fill-6" fill="#8098BF" points="62.2229437 190.110287 63.7421623 212.345892 87.8811688 212.345892 86.2556818 188.461078 62.2229437 190.110287"></polyline>
                <path d="M64.4412965,211.692234 L87.1792381,211.692234 L85.6516299,189.254856 L63.0143636,190.808784 L64.4412965,211.692234 Z M88.6760844,213.093431 L63.1353139,213.093431 L61.5238095,189.505671 L86.9513203,187.760479 L88.6760844,213.093431 Z" id="Fill-7" fill="#01327F"></path>
                <polyline id="Fill-8" fill="#8098BF" points="41.9774156 212.031323 69.8637814 144.006683 47.5725866 137.317365 16.7792208 212.031323 41.9774156 212.031323"></polyline>
                <path d="M18.171197,211.483455 L41.8550671,211.483455 L69.2695173,144.609198 L48.3234567,138.322725 L18.171197,211.483455 Z M42.7926061,212.884653 L16.0800866,212.884653 L47.5138593,136.616766 L71.1501883,143.710329 L42.7926061,212.884653 Z" id="Fill-9" fill="#01327F"></path>
                <path d="M98.9549405,212.24747 L125.212324,212.24747 C125.112347,211.185362 125.022159,210.100134 124.943856,208.985482 C124.077629,196.081152 125.155694,186.444416 128.140997,180.104697 C131.159858,173.769182 135.689549,170.397901 141.731466,169.990152 C147.63915,169.562787 152.465973,172.298625 156.177676,178.190661 C159.922938,184.088302 162.197921,193.467919 163.098406,206.377152 C163.235436,208.417296 163.322129,210.370566 163.365475,212.24747 L189.970071,212.24747 C189.97662,209.742829 189.901114,207.185643 189.71864,204.562602 C189.155837,196.087458 187.744285,188.27438 185.505657,181.19553 C183.267728,174.116679 180.125819,168.06841 176.075036,163.08435 C171.990694,158.096087 167.01146,154.310751 161.137334,151.728344 C155.224057,149.175362 148.405401,148.13217 140.636622,148.660422 C132.729414,149.202685 126.015629,151.155254 120.462406,154.511823 C114.942042,157.873997 110.464088,162.280763 107.124324,167.780464 C103.751001,173.27526 101.406804,179.675931 100.018324,187.005596 C98.6641006,194.340865 98.2488149,202.260434 98.8402824,210.77341 C98.8731418,211.269434 98.9157889,211.757051 98.9549405,212.24747" id="Fill-10" fill="#FFFFFF"></path>
                <path d="M164.044118,211.545247 L189.267482,211.545247 C189.259092,209.202445 189.175895,206.872253 189.01859,204.609319 C188.462778,196.228756 187.055421,188.422684 184.837068,181.405486 C182.629901,174.423319 179.499178,168.407977 175.530893,163.525504 C171.537438,158.647936 166.598754,154.894127 160.854668,152.368468 C155.035774,149.856121 148.24788,148.842355 140.681849,149.357995 C132.939637,149.888349 126.258012,151.824103 120.820845,155.109912 C115.359908,158.436355 110.951168,162.821403 107.719769,168.142451 C104.437334,173.490121 102.077057,179.878882 100.703259,187.134983 C99.3504339,194.462546 98.9575205,202.39963 99.5357044,210.723445 C99.5538819,211.000181 99.574856,211.272714 99.5972283,211.545247 L124.443759,211.545247 C124.371049,210.722744 124.303932,209.88693 124.244505,209.032199 C123.374782,196.08163 124.471724,186.248726 127.505966,179.803918 C130.629698,173.249816 135.398492,169.713193 141.682311,169.290031 C142.095499,169.260606 142.50659,169.245193 142.912088,169.245193 C148.523339,169.245193 153.184466,172.128157 156.766131,177.815618 C160.574315,183.812043 162.873068,193.139115 163.793828,206.327187 C163.911982,208.084289 163.995878,209.835786 164.044118,211.545247 Z M190.663652,212.946445 L162.679408,212.946445 L162.663328,212.26266 C162.619982,210.357732 162.530492,208.392552 162.398356,206.423169 C161.507659,193.654756 159.215198,184.281445 155.584594,178.56596 C152.032293,172.925439 147.38375,170.282079 141.77949,170.687726 C135.952207,171.080061 131.697975,174.258678 128.769302,180.404331 C125.83923,186.628451 124.785635,196.228756 125.639278,208.936217 C125.716882,210.044564 125.806371,211.123486 125.906347,212.179989 L125.978358,212.946445 L98.3066265,212.946445 L98.2227304,211.899049 C98.1933668,211.539642 98.1647023,211.181636 98.1402326,210.818726 C97.5543581,202.379313 97.9542629,194.323828 99.3287607,186.877163 C100.735419,179.449415 103.15652,172.900918 106.527046,167.411025 C109.874501,161.899415 114.440546,157.356031 120.096542,153.911187 C125.727369,150.507678 132.620832,148.506067 140.586068,147.9596 C148.379317,147.429948 155.383243,148.480846 161.411178,151.08357 C167.364306,153.700307 172.477774,157.587229 176.613852,162.638546 C180.693999,167.660439 183.909317,173.831313 186.170317,180.982325 C188.422228,188.106714 189.84986,196.02348 190.414062,204.514037 C190.588845,207.034091 190.67344,209.636816 190.66575,212.247948 L190.663652,212.946445 Z" id="Fill-11" fill="#01327F"></path>
                <polyline id="Fill-12" stroke="#01327F" stroke-width="0.7" fill="#8098BF" points="287.738468 212.245006 285.960569 201.206371 273.42719 202.057599 271.526944 174.134533 247.494206 175.784443 249.400045 203.67318 224.50108 205.400856 255.437768 130.000311 233.113015 123.305389 196.45671 212.245006 287.738468 212.245006"></polyline>
                <path d="M197.847987,211.696437 L287.263755,211.696437 L285.71797,202.100335 L273.123766,202.956467 L271.22282,175.034102 L248.585554,176.58803 L250.491394,204.476066 L223.772582,206.32915 L254.843504,130.601425 L233.864584,124.310749 L197.847987,211.696437 Z M288.906022,213.097635 L195.757576,213.097635 L233.054288,122.60479 L256.724175,129.702557 L225.921721,204.775922 L249.000141,203.175054 L247.094301,175.284916 L272.52321,173.539725 L274.423457,201.463491 L286.894613,200.615766 L288.906022,213.097635 Z" id="Fill-13" fill="#01327F"></path>
                <path d="M151.77495,155.023421 C152.015452,158.010074 145.937179,160.937876 138.199162,161.56211 C130.461145,162.187044 123.993454,160.273008 123.753651,157.286355 C123.513149,154.299702 129.591422,151.3719 137.329439,150.746966 C145.067456,150.122032 151.534448,152.036768 151.77495,155.023421" id="Fill-14" fill="#01327F" opacity="0.155831473"></path>
                <path d="M165.390312,156.687947 C164.958947,157.892977 162.344185,158.055515 159.549046,157.051557 C156.753908,156.047599 154.837581,154.256869 155.268248,153.051839 C155.699613,151.846809 158.314375,151.68427 161.109514,152.688228 C163.904652,153.692887 165.820979,155.482917 165.390312,156.687947" id="Fill-15" fill="#01327F" opacity="0.155831473"></path>
                <polygon id="Fill-16" fill="#01327F" points="0 212.982036 8.38961039 212.982036 8.38961039 211.580838 0 211.580838"></polygon>
                <polygon id="Fill-17" fill="#01327F" points="34.95671 224.191617 43.1610498 224.191617 43.1610498 222.790419 34.95671 222.790419"></polygon>
                <polygon id="Fill-18" fill="#01327F" points="55.2316017 224.191617 70.0525476 224.191617 70.0525476 222.790419 55.2316017 222.790419"></polygon>
                <polygon id="Fill-19" fill="#01327F" points="227.218615 224.191617 233.82753 224.191617 233.82753 222.790419 227.218615 222.790419"></polygon>
                <polygon id="Fill-20" fill="#01327F" points="241.900433 224.191617 270.615273 224.191617 270.615273 222.790419 241.900433 222.790419"></polygon>
                <polygon id="Fill-21" fill="#01327F" points="23.0714286 234 30.3088658 234 30.3088658 232.598802 23.0714286 232.598802"></polygon>
                <polygon id="Fill-22" fill="#01327F" points="274.75974 234 281.996478 234 281.996478 232.598802 274.75974 232.598802"></polygon>
                <path d="M130.301752,155.979649 C130.300354,155.979649 130.298956,155.979649 130.297557,155.979649 C129.332053,155.977547 128.55112,155.191476 128.553917,154.223949 C128.590272,138.931979 124.040306,128.898703 122.872752,127.033008 C122.637144,126.802511 122.464458,126.502655 122.388951,126.15726 C122.245629,125.500799 122.489627,124.795296 123.016075,124.379841 C123.543222,123.965086 124.268224,123.889422 124.870878,124.182973 C126.513144,124.984458 128.971999,132.736583 128.995769,132.81435 C130.401728,137.317098 132.07196,144.688098 132.049588,154.232356 C132.046791,155.198482 131.265159,155.979649 130.301752,155.979649" id="Fill-23" fill="#01327F"></path>
                <path d="M172.290273,136.614238 C171.855412,136.614238 171.42055,136.4524 171.08147,136.128023 C170.384433,135.458951 170.359964,134.350603 171.026938,133.651406 C172.202881,132.412747 175.260195,128.338064 173.90807,125.973544 C172.49442,123.50043 166.787388,121.273226 163.521732,120.450023 C162.585591,120.214621 162.017195,119.263208 162.252104,118.325106 C162.487013,117.387005 163.437137,116.81952 164.37118,117.052118 C165.383526,117.306436 174.330347,119.665352 176.940914,124.231855 C179.873083,129.360238 173.812288,135.802244 173.552909,136.073376 C173.209635,136.432783 172.750303,136.614238 172.290273,136.614238" id="Fill-24" fill="#01327F"></path>
                <path d="M159.751371,72.5577301 C159.476611,72.5577301 159.197657,72.4925744 158.938278,72.3559576 C158.083936,71.904772 157.756042,70.8454666 158.206285,69.9900355 L169.830789,47.8763349 C170.280332,47.0202032 171.338122,46.6909217 172.191765,47.1428079 C173.046107,47.593293 173.373302,48.6525984 172.923759,49.5087301 L161.299254,71.6224307 C160.986741,72.2179397 160.379194,72.5577301 159.751371,72.5577301" id="Fill-25" fill="#01327F"></path>
                <path d="M114.427175,87.7184674 C114.36635,87.7184674 114.305525,87.7149644 114.243302,87.708659 L86.161179,84.762641 C85.2012677,84.6617548 84.5042309,83.8000183 84.6049062,82.8380961 C84.7055816,81.876174 85.5655166,81.18118 86.5254279,81.2785632 L114.607551,84.2245812 C115.567463,84.3254674 116.264499,85.1872039 116.163824,86.1491261 C116.07014,87.0493955 115.31088,87.7184674 114.427175,87.7184674" id="Fill-26" fill="#01327F"></path>
                <path d="M173.418481,121.266574 L126.949828,135.667383 C126.012988,135.957431 125.018819,135.431982 124.728678,134.493179 L107.74601,79.4611433 C107.607581,79.0127601 107.651627,78.5286463 107.867659,78.1124906 L113.856443,66.6051553 C114.075971,66.1840954 114.453503,65.868826 114.906542,65.7280056 L152.667479,54.0259038 C153.604319,53.7358559 154.598488,54.261305 154.888629,55.2001074 L174.59023,119.040772 C174.879672,119.979574 174.355321,120.975826 173.418481,121.266574" id="Fill-27" fill="#FFFFFF"></path>
                <path d="M153.194508,54.6467066 C153.08754,54.6467066 152.979873,54.6628204 152.875702,54.6950479 L115.114066,66.3978503 C114.841404,66.4819222 114.609291,66.675988 114.477854,66.9296048 L108.48907,78.4369401 C108.356934,78.6905569 108.330367,78.9806048 108.414962,79.2538383 L125.39833,134.285874 C125.571016,134.84285 126.179263,135.173533 126.744163,134.997683 L173.213516,120.596874 C173.488276,120.512102 173.712698,120.325042 173.847631,120.070024 C173.981166,119.815006 174.008432,119.522856 173.923837,119.248222 L154.222235,55.4068563 C154.08101,54.9521677 153.66922,54.6467066 153.194508,54.6467066 Z M126.425358,136.447222 C125.334709,136.447222 124.385285,135.745922 124.062285,134.699928 L107.078917,79.6678922 C106.885256,79.0394551 106.945382,78.3717844 107.249505,77.7888862 L113.23759,66.2815509 C113.541713,65.6986527 114.074453,65.2530719 114.700878,65.059006 L152.462514,53.3562036 C152.700919,53.2826407 152.947014,53.245509 153.194508,53.245509 C154.285157,53.245509 155.23528,53.9482096 155.557581,54.9928024 L175.259183,118.834168 C175.45494,119.466808 175.392718,120.137982 175.0837,120.723683 C174.775382,121.310084 174.258023,121.740251 173.626005,121.935719 L127.157352,136.335826 C126.919646,136.41009 126.672852,136.447222 126.425358,136.447222 Z" id="Fill-28" fill="#01327F"></path>
                <path d="M143.031486,87.2270722 C143.848075,90.7622938 142.276422,94.6232938 139.520435,95.8507429 C136.765147,97.0774914 133.868634,95.206192 133.051346,91.6702698 C132.234757,88.1350483 133.806411,84.2740483 136.562398,83.0472998 C139.317686,81.8198507 142.214199,83.6911501 143.031486,87.2270722" id="Fill-29" fill="#01327F"></path>
                <path d="M136.43534,83.0472436 C135.186686,83.6028185 134.185526,84.702058 133.534632,86.0633215 C134.824535,87.3643334 136.597539,87.8092137 138.318807,87.0434592 C139.56816,86.4864831 140.567223,85.3837406 141.216019,84.0189742 C139.926816,82.7221658 138.153812,82.2814891 136.43534,83.0472436" id="Fill-30" fill="#ABB3C5"></path>
                <path d="M114.230139,65.8562874 C114.209864,65.874503 114.192385,65.8948204 114.173509,65.9137365 L107.739377,78.1342814 C107.70442,78.2414731 107.680649,78.3507665 107.666667,78.4621617 L115.550803,76.0184731 C116.46597,75.7354311 116.978435,74.7622994 116.695286,73.8452156 L114.230139,65.8562874" id="Fill-31" fill="#FFFCF3"></path>
                <path d="M114.181199,67.487982 L109.083113,77.1702575 L115.474597,75.1896647 C115.738171,75.1076946 115.954903,74.9276407 116.084242,74.6831317 C116.212883,74.4379222 116.23945,74.156982 116.157652,73.8921557 L114.181199,67.487982 Z M106.967532,79.2923713 L107.103165,78.2148503 C107.12274,78.060018 107.156299,77.9072874 107.204539,77.7573593 L107.251381,77.6473653 L113.813455,65.2544731 C113.842818,65.2229461 113.869385,65.1963234 113.89805,65.1711018 L114.708346,64.4550898 L117.493697,73.4781018 C117.68526,74.1009341 117.624435,74.7608982 117.321011,75.3367904 C117.017587,75.9126826 116.508617,76.3358443 115.887786,76.528509 L106.967532,79.2923713 Z" id="Fill-32" fill="#01327F"></path>
                <path d="M144.859725,75.560246 C144.959002,76.3701382 144.384314,77.105767 143.576814,77.205252 C142.769314,77.3040364 142.034524,76.7281442 141.935247,75.9189526 C141.836669,75.109761 142.411357,74.3734316 143.218857,74.2746472 C144.026357,74.1751622 144.761147,74.7510544 144.859725,75.560246" id="Fill-33" fill="#01327F"></path>
                <path d="M130.178053,81.1656014 C130.276631,81.974793 129.701943,82.7111223 128.894443,82.8099068 C128.086943,82.9086912 127.352153,82.332799 127.253575,81.5236074 C127.154298,80.7144157 127.728986,79.9780864 128.536486,79.879302 C129.344685,79.7805175 130.078776,80.3557092 130.178053,81.1656014" id="Fill-34" fill="#01327F"></path>
                <path d="M43.1730054,30.7093473 C42.9185205,30.7093473 42.6598409,30.7324671 42.4039577,30.7787066 C40.8511807,31.0568443 39.5389058,32.2793892 39.139001,33.8221078 C39.0655919,34.1037485 39.0215465,34.3895928 39.0061655,34.6726347 C38.9879881,35.0173293 39.1089383,35.3452096 39.3480422,35.5974251 C39.5899426,35.8531437 39.9164383,35.9939641 40.2674036,35.9939641 L65.9081504,35.9939641 C66.2570184,35.9939641 66.5953993,35.8503413 66.8372997,35.5995269 C67.062421,35.3662275 67.1805746,35.0656707 67.1693885,34.752503 C67.0826958,32.8321617 65.5529902,31.2053713 63.6842045,31.0064012 C63.1290919,30.9475509 62.5872629,31.0078024 62.0608149,31.1808503 L61.3588842,31.4113473 L61.2477218,30.6799222 C60.6891136,27.0255988 57.60733,24.3738323 53.9193971,24.3738323 C50.1140097,24.3738323 46.9413387,27.2294731 46.5393365,31.0162096 L46.4274751,32.072012 L45.5591504,31.4638922 C44.8544231,30.9699701 44.0294448,30.7093473 43.1730054,30.7093473 Z M65.9081504,37.2480359 L40.2674036,37.2480359 C39.5794556,37.2480359 38.9131807,36.9607904 38.4398668,36.4605629 C37.9630573,35.9561317 37.7204577,35.2975689 37.7568127,34.6060778 C37.7763885,34.2396647 37.8337175,33.8690479 37.9281006,33.5068383 C38.4566461,31.4673952 40.1268777,29.9120659 42.1837305,29.5442515 C43.3051417,29.3431796 44.4419339,29.4903054 45.4437932,29.9562036 C46.296737,25.9992216 49.7889123,23.1197605 53.9193971,23.1197605 C57.9988452,23.1197605 61.4441785,25.8962335 62.3544513,29.8146826 C62.8340573,29.7264072 63.3199556,29.7060898 63.8163409,29.7593353 C66.3255335,30.0262635 68.3033842,32.1301617 68.4180422,34.653018 C68.4425119,35.3655269 68.1999123,35.9904611 67.7370855,36.4703713 C67.2609751,36.964994 66.594001,37.2480359 65.9081504,37.2480359 Z" id="Fill-35" fill="#01327F"></path>
                <path d="M222.83785,28.9067066 C222.414874,28.9067066 221.987004,28.9641557 221.566125,29.0790539 C219.774943,29.5645689 218.401844,31.0526407 218.066959,32.8692934 C218.012426,33.1635449 217.984461,33.4634012 217.983063,33.7604551 C217.981664,34.2067365 218.16274,34.635503 218.491333,34.965485 C218.84929,35.3255928 219.347073,35.5315689 219.857441,35.5315689 L240.983179,35.5315689 C241.99203,35.5315689 242.849169,34.7356886 242.85616,33.7933832 C242.85616,31.9438024 241.373296,30.4578323 239.550653,30.4578323 C239.493324,30.4676407 239.445783,30.4732455 239.397543,30.4760479 L238.870396,30.4998683 L238.757835,29.9828263 C238.053108,26.7327485 235.130727,24.3731317 231.808441,24.3731317 C228.900043,24.3731317 226.312547,26.1211257 225.217004,28.8247365 L224.993281,29.377509 L224.431177,29.1813413 C223.909623,28.9991856 223.374086,28.9067066 222.83785,28.9067066 Z M240.983179,36.7856407 L219.857441,36.7856407 C219.017781,36.7856407 218.196998,36.4451497 217.60553,35.8510419 C217.03993,35.2835569 216.729515,34.539521 216.731612,33.7562515 C216.733011,33.3835329 216.768666,33.0087126 216.836482,32.6415988 C217.25806,30.3527425 218.98632,28.4793413 221.238231,27.8684192 C222.24848,27.594485 223.287394,27.5818743 224.289952,27.8312874 C225.686822,24.9511257 228.57984,23.1197605 231.808441,23.1197605 C235.541818,23.1197605 238.845926,25.6531257 239.855476,29.2142695 C242.226939,29.3719042 244.10761,31.3552994 244.10761,33.7709641 C244.095725,35.447497 242.69466,36.7856407 240.983179,36.7856407 Z" id="Fill-36" fill="#01327F"></path>
                <path d="M196.479082,34.3174311 L196.421753,34.3174311 C196.421753,32.7887246 195.185684,31.5493653 193.660173,31.5493653 L193.660173,31.4926168 C195.185684,31.4926168 196.421753,30.2532575 196.421753,28.7245509 L196.479082,28.7245509 C196.479082,30.2532575 197.715851,31.4926168 199.240662,31.4926168 L199.240662,31.5493653 C197.715851,31.5493653 196.479082,32.7887246 196.479082,34.3174311" id="Fill-37" fill="#FFFFFF"></path>
                <path d="M88.1132814,46.2269102 L88.0566515,46.2269102 C88.0566515,44.6982036 86.8198831,43.4588443 85.2943723,43.4588443 L85.2943723,43.4020958 C86.8198831,43.4020958 88.0566515,42.1627365 88.0566515,40.6347305 L88.1132814,40.6347305 C88.1132814,42.1627365 89.3500498,43.4020958 90.8755606,43.4020958 L90.8755606,43.4588443 C89.3500498,43.4588443 88.1132814,44.6982036 88.1132814,46.2269102" id="Fill-38" fill="#0884FF"></path>
                <path d="M149.832848,34.6481138 L149.715394,34.6481138 C149.715394,31.4968204 147.166351,28.9424371 144.021645,28.9424371 L144.021645,28.8247365 C147.166351,28.8247365 149.715394,26.2703533 149.715394,23.1197605 L149.832848,23.1197605 C149.832848,26.2703533 152.381892,28.8247365 155.525898,28.8247365 L155.525898,28.9424371 C152.381892,28.9424371 149.832848,31.4968204 149.832848,34.6481138" id="Fill-39" fill="#FF5AA4"></path>
                <path d="M211.874017,62.3406826 L211.788723,62.3406826 C211.788723,60.0462216 209.932522,58.1861317 207.642857,58.1861317 L207.642857,58.1006587 C209.932522,58.1006587 211.788723,56.2405689 211.788723,53.9461078 L211.874017,53.9461078 C211.874017,56.2405689 213.730219,58.1006587 216.019883,58.1006587 L216.019883,58.1861317 C213.730219,58.1861317 211.874017,60.0462216 211.874017,62.3406826" id="Fill-40" fill="#FFB300"></path>
                <path d="M196.493065,95.9694251 L196.407771,95.9694251 C196.407771,93.6749641 194.551569,91.8148743 192.261905,91.8148743 L192.261905,91.7294012 C194.551569,91.7294012 196.407771,89.8693114 196.407771,87.5748503 L196.493065,87.5748503 C196.493065,89.8693114 198.349266,91.7294012 200.638931,91.7294012 L200.638931,91.8148743 C198.349266,91.8148743 196.493065,93.6749641 196.493065,95.9694251" id="Fill-40-Copy" fill="#0AD9C5"></path>
                <path d="M51.0738506,74.9514611 L50.9878571,74.9514611 C50.9878571,72.657 49.1316558,70.7969102 46.8419913,70.7969102 L46.8419913,70.7114371 C49.1316558,70.7114371 50.9878571,68.8513473 50.9878571,66.5568862 L51.0738506,66.5568862 C51.0738506,68.8513473 52.9300519,70.7114371 55.2197165,70.7114371 L55.2197165,70.7969102 C52.9300519,70.7969102 51.0738506,72.657 51.0738506,74.9514611" id="Fill-41" fill="#3910DA"></path>
            </g>
        </g>
    </g>
</svg>