<?xml version="1.0" encoding="UTF-8"?>
<svg width="484px" height="512px" viewBox="0 0 484 512" version="1.1" xmlns="http://www.w3.org/2000/svg" xmlns:xlink="http://www.w3.org/1999/xlink">
    <!-- Generator: Sketch 57.1 (83088) - https://sketch.com -->
    <title>xls</title>
    <desc>Created with Sketch.</desc>
    <g id="new-updations" stroke="none" stroke-width="1" fill="none" fill-rule="evenodd">
        <g id="xls" fill="#01327F" fill-rule="nonzero">
            <path d="M480.479,138.557 L350.04,3.018 C348.183,1.09 345.621,0 342.945,0 L148.535,0 C126.778,0 109.077,17.694 109.077,39.442 L109.077,177.231 L30.29,177.231 C14.012,177.231 0.769,190.47 0.769,206.744 L0.769,354.488 C0.769,370.761 14.012,384 30.29,384 L109.077,384 L109.077,472.627 C109.077,494.337 126.778,512 148.535,512 L443.773,512 C465.53,512 483.231,494.347 483.231,472.649 L483.231,145.385 C483.231,142.839 482.244,140.392 480.479,138.557 Z M345.385,26.581 L452.464,137.846 L345.385,137.846 L345.385,26.581 Z M30.29,364.308 C24.87,364.308 20.462,359.903 20.462,354.488 L20.462,206.744 C20.462,201.329 24.871,196.923 30.29,196.923 L296.171,196.923 C301.59,196.923 306,201.329 306,206.744 L306,354.488 C306,359.903 301.59,364.308 296.171,364.308 L30.29,364.308 Z M463.538,472.649 C463.538,483.489 454.671,492.308 443.772,492.308 L148.535,492.308 C137.636,492.308 128.769,483.48 128.769,472.628 L128.769,384 L296.17,384 C312.449,384 325.692,370.761 325.692,354.488 L325.692,206.744 C325.692,190.47 312.449,177.231 296.17,177.231 L128.769,177.231 L128.769,39.442 C128.769,28.551 137.636,19.692 148.535,19.692 L325.692,19.692 L325.692,147.692 C325.692,153.13 330.101,157.538 335.538,157.538 L463.538,157.538 L463.538,472.649 Z" id="Shape"></path>
            <path d="M270.645,286.819 C268.395,283.183 265.279,280.318 261.299,278.221 C257.318,276.126 251.175,274.098 242.867,272.136 C234.559,270.174 229.329,268.289 227.175,266.482 C225.481,265.059 224.635,263.345 224.635,261.347 C224.635,259.154 225.538,257.403 227.348,256.096 C230.156,254.058 234.041,253.039 239.001,253.039 C243.808,253.039 247.415,253.992 249.819,255.894 C252.222,257.797 253.789,260.923 254.52,265.27 L271.596,264.519 C271.328,256.75 268.512,250.538 263.146,245.886 C257.779,241.231 249.79,238.905 239.176,238.905 C232.675,238.905 227.127,239.884 222.531,241.847 C217.935,243.809 214.415,246.664 211.973,250.413 C209.531,254.164 208.308,258.194 208.308,262.502 C208.308,269.192 210.905,274.866 216.099,279.521 C219.791,282.827 226.213,285.616 235.368,287.885 C242.482,289.655 247.041,290.886 249.039,291.577 C251.964,292.616 254.011,293.837 255.183,295.24 C256.357,296.646 256.943,298.346 256.943,300.348 C256.943,303.462 255.549,306.184 252.761,308.51 C249.972,310.836 245.829,312 240.328,312 C235.136,312 231.011,310.693 227.954,308.076 C224.897,305.462 222.869,301.366 221.867,295.788 L205.251,297.403 C206.366,306.865 209.79,314.068 215.521,319.01 C221.252,323.95 229.463,326.422 240.156,326.422 C247.501,326.422 253.638,325.393 258.561,323.335 C263.484,321.28 267.289,318.134 269.982,313.902 C272.675,309.673 274.022,305.134 274.022,300.287 C274.02,294.942 272.895,290.452 270.645,286.819 Z" id="Path"></path>
            <polygon id="Path" points="154.943 310.673 154.943 241.039 137.864 241.039 137.864 324.923 197.405 324.923 197.405 310.673"></polygon>
            <polygon id="Path" points="99.73 281.423 126.039 240.347 106.251 240.347 89.636 267.52 72.673 240.347 52.713 240.347 78.903 280.788 50 324.923 70.48 324.923 89.289 295.672 108.038 324.923 128.634 324.923"></polygon>
        </g>
    </g>
</svg>