<svg width="40" height="39" viewBox="0 0 40 39" fill="none" xmlns="http://www.w3.org/2000/svg">
<ellipse opacity="0.1" cx="20.2218" cy="19.6392" rx="19.7111" ry="18.7615" fill="#1F62FB"/>
<path d="M27.2208 25.4372C27.7088 25.4372 28.1058 25.8199 28.1058 26.2905C28.1058 26.762 27.7088 27.1438 27.2208 27.1438H22.2185C21.7304 27.1438 21.3335 26.762 21.3335 26.2905C21.3335 25.8199 21.7304 25.4372 22.2185 25.4372H27.2208ZM23.7517 12.7176L25.0439 13.6946C25.5738 14.089 25.927 14.6089 26.0479 15.1556C26.1873 15.7571 26.0386 16.3478 25.6202 16.8587L17.9229 26.3332C17.5697 26.7635 17.0491 27.0055 16.4913 27.0145L13.4236 27.0503C13.2562 27.0503 13.1168 26.9428 13.0796 26.7904L12.3824 23.9131C12.2615 23.3842 12.3824 22.8374 12.7356 22.4162L18.1925 15.6935C18.2855 15.5859 18.4528 15.5689 18.5644 15.6486L20.8606 17.3876C21.0093 17.5041 21.2138 17.5669 21.4276 17.54C21.8832 17.4862 22.1899 17.0918 22.1434 16.6705C22.1156 16.4554 22.004 16.2761 21.8553 16.1416C21.8088 16.1058 19.6242 14.4386 19.6242 14.4386C19.4847 14.331 19.4568 14.1338 19.5684 14.0002L20.4329 12.9327C21.2324 11.9556 22.6269 11.866 23.7517 12.7176Z" fill="#1F62FB"/>
</svg>
