<?xml version="1.0" encoding="utf-8"?>
<svg viewBox="379.168 251.167 40.375 38.983" xmlns="http://www.w3.org/2000/svg">
  <ellipse opacity="0.1" cx="399.377" cy="270.926" rx="19.711" ry="18.761" fill="#1F62FB" transform="matrix(1, 0, 0, 1, -5.684341886080802e-14, 0)"/>
  <path d="M 388.527 270.886 C 388.527 270.886 392.527 262.886 399.527 262.886 C 403.236 262.886 406.102 265.131 407.978 267.243 C 409.643 269.117 410.527 270.886 410.527 270.886 C 410.527 270.886 406.527 278.886 399.527 278.886 C 392.527 278.886 388.527 270.886 388.527 270.886 Z" stroke="#1F62FB" stroke-width="2" stroke-linecap="round" stroke-linejoin="round" style="fill: rgba(49, 62, 92, 0);" transform="matrix(1, 0, 0, 1, -5.684341886080802e-14, 0)"/>
  <path d="M 399.527 273.886 C 401.184 273.886 402.527 272.543 402.527 270.886 C 402.527 269.229 401.184 267.886 399.527 267.886 C 397.87 267.886 396.527 269.229 396.527 270.886 C 396.527 272.543 397.87 273.886 399.527 273.886 Z" stroke="#1F62FB" stroke-width="2" stroke-linecap="round" stroke-linejoin="round" style="fill: rgba(0, 0, 0, 0);" transform="matrix(1, 0, 0, 1, -5.684341886080802e-14, 0)"/>
</svg>