<svg width="54" height="54" viewBox="0 0 54 54" fill="none" xmlns="http://www.w3.org/2000/svg">
<path d="M29.25 4.5H13.5C12.3065 4.5 11.1619 4.97411 10.318 5.81802C9.47411 6.66193 9 7.80653 9 9V45C9 46.1935 9.47411 47.3381 10.318 48.182C11.1619 49.0259 12.3065 49.5 13.5 49.5H40.5C41.6935 49.5 42.8381 49.0259 43.682 48.182C44.5259 47.3381 45 46.1935 45 45V20.25L29.25 4.5Z" stroke="#2B2B43" stroke-width="2" stroke-linecap="round" stroke-linejoin="round"/>
<path d="M29.25 4.5V20.25H45" stroke="#2B2B43" stroke-width="2" stroke-linecap="round" stroke-linejoin="round"/>
<path d="M33.5387 33.3845V36.1538C33.5387 36.521 33.3928 36.8732 33.1331 37.1328C32.8735 37.3925 32.5213 37.5384 32.1541 37.5384H22.4618C22.0945 37.5384 21.7424 37.3925 21.4827 37.1328C21.223 36.8732 21.0771 36.521 21.0771 36.1538V33.3845" stroke="#2B2B43" stroke-width="2" stroke-linecap="round" stroke-linejoin="round"/>
<path d="M30.7688 28.5384L27.3072 25.0769L23.8457 28.5384" stroke="#2B2B43" stroke-width="2" stroke-linecap="round" stroke-linejoin="round"/>
<path d="M27.3076 25.0769V33.3846" stroke="#2B2B43" stroke-width="2" stroke-linecap="round" stroke-linejoin="round"/>
</svg>
