<?xml version="1.0" encoding="utf-8"?>
<svg viewBox="288.225 226.247 135.437 40.925" xmlns="http://www.w3.org/2000/svg">
  <path d="M 418.388 266.705 L 293.388 266.705 C 290.588 266.705 288.388 264.505 288.388 261.705 L 288.388 231.705 C 288.388 228.905 290.588 226.705 293.388 226.705 L 418.388 226.705 C 421.188 226.705 423.388 228.905 423.388 231.705 L 423.388 261.705 C 423.388 264.505 421.188 266.705 418.388 266.705 Z" transform="matrix(0.9999999999999999, 0, 0, 0.9999999999999999, -2.842170943040401e-14, 0)"/>
  <path class="st0" d="M 418.388 227.505 C 420.688 227.505 422.588 229.405 422.588 231.705 L 422.588 261.705 C 422.588 264.005 420.688 265.905 418.388 265.905 L 293.388 265.905 C 291.088 265.905 289.188 264.005 289.188 261.705 L 289.188 231.705 C 289.188 229.405 291.088 227.505 293.388 227.505 L 418.388 227.505 M 418.388 226.705 L 293.388 226.705 C 290.588 226.705 288.388 229.005 288.388 231.705 L 288.388 261.705 C 288.388 264.505 290.588 266.705 293.388 266.705 L 418.388 266.705 C 421.188 266.705 423.388 264.505 423.388 261.705 L 423.388 231.705 C 423.388 229.005 421.188 226.705 418.388 226.705 Z" style="fill: rgb(166, 166, 166);" transform="matrix(0.9999999999999999, 0, 0, 0.9999999999999999, -2.842170943040401e-14, 0)"/>
  <path class="st1" d="M 335.788 236.905 C 335.788 237.705 335.588 238.405 335.088 238.905 C 334.488 239.505 333.788 239.805 332.888 239.805 C 331.988 239.805 331.288 239.505 330.688 238.905 C 330.088 238.305 329.788 237.605 329.788 236.705 C 329.788 235.805 330.088 235.105 330.688 234.505 C 331.288 233.905 331.988 233.605 332.888 233.605 C 333.288 233.605 333.688 233.705 334.088 233.905 C 334.488 234.105 334.788 234.305 334.988 234.605 L 334.488 235.105 C 334.088 234.605 333.588 234.405 332.888 234.405 C 332.288 234.405 331.688 234.605 331.288 235.105 C 330.788 235.505 330.588 236.105 330.588 236.805 C 330.588 237.505 330.788 238.105 331.288 238.505 C 331.788 238.905 332.288 239.205 332.888 239.205 C 333.588 239.205 334.088 239.005 334.588 238.505 C 334.888 238.205 335.088 237.805 335.088 237.305 L 332.888 237.305 L 332.888 236.505 L 335.788 236.505 L 335.788 236.905 Z M 340.388 234.405 L 337.688 234.405 L 337.688 236.305 L 340.188 236.305 L 340.188 237.005 L 337.688 237.005 L 337.688 238.905 L 340.388 238.905 L 340.388 239.705 L 336.888 239.705 L 336.888 233.705 L 340.388 233.705 L 340.388 234.405 Z M 343.688 239.705 L 342.888 239.705 L 342.888 234.405 L 341.188 234.405 L 341.188 233.705 L 345.388 233.705 L 345.388 234.405 L 343.688 234.405 L 343.688 239.705 Z M 348.288 239.705 L 348.288 233.705 L 349.088 233.705 L 349.088 239.705 L 348.288 239.705 Z M 352.488 239.705 L 351.688 239.705 L 351.688 234.405 L 349.988 234.405 L 349.988 233.705 L 354.088 233.705 L 354.088 234.405 L 352.388 234.405 L 352.388 239.705 L 352.488 239.705 Z M 361.988 238.905 C 361.388 239.505 360.688 239.805 359.788 239.805 C 358.888 239.805 358.188 239.505 357.588 238.905 C 356.988 238.305 356.688 237.605 356.688 236.705 C 356.688 235.805 356.988 235.105 357.588 234.505 C 358.188 233.905 358.888 233.605 359.788 233.605 C 360.688 233.605 361.388 233.905 361.988 234.505 C 362.588 235.105 362.888 235.805 362.888 236.705 C 362.888 237.605 362.588 238.305 361.988 238.905 Z M 358.188 238.405 C 358.588 238.805 359.188 239.105 359.788 239.105 C 360.388 239.105 360.988 238.905 361.388 238.405 C 361.788 238.005 362.088 237.405 362.088 236.705 C 362.088 236.005 361.888 235.405 361.388 235.005 C 360.988 234.605 360.388 234.305 359.788 234.305 C 359.188 234.305 358.588 234.505 358.188 235.005 C 357.788 235.405 357.488 236.005 357.488 236.705 C 357.488 237.405 357.688 238.005 358.188 238.405 Z M 363.988 239.705 L 363.988 233.705 L 364.888 233.705 L 367.788 238.405 L 367.788 233.705 L 368.588 233.705 L 368.588 239.705 L 367.788 239.705 L 364.688 234.805 L 364.688 239.705 L 363.988 239.705 Z" style="fill: rgb(255, 255, 255); stroke: rgb(255, 255, 255); stroke-miterlimit: 10; stroke-width: 0.2px;" transform="matrix(0.9999999999999999, 0, 0, 0.9999999999999999, -2.842170943040401e-14, 0)"/>
  <path class="st2" d="M 356.488 248.505 C 354.088 248.505 352.188 250.305 352.188 252.805 C 352.188 255.205 354.088 257.105 356.488 257.105 C 358.888 257.105 360.788 255.305 360.788 252.805 C 360.788 250.205 358.888 248.505 356.488 248.505 Z M 356.488 255.305 C 355.188 255.305 354.088 254.205 354.088 252.705 C 354.088 251.205 355.188 250.105 356.488 250.105 C 357.788 250.105 358.888 251.105 358.888 252.705 C 358.888 254.205 357.788 255.305 356.488 255.305 Z M 347.188 248.505 C 344.788 248.505 342.888 250.305 342.888 252.805 C 342.888 255.205 344.788 257.105 347.188 257.105 C 349.588 257.105 351.488 255.305 351.488 252.805 C 351.488 250.205 349.588 248.505 347.188 248.505 Z M 347.188 255.305 C 345.888 255.305 344.788 254.205 344.788 252.705 C 344.788 251.205 345.888 250.105 347.188 250.105 C 348.488 250.105 349.588 251.105 349.588 252.705 C 349.588 254.205 348.488 255.305 347.188 255.305 Z M 336.088 249.805 L 336.088 251.605 L 340.388 251.605 C 340.288 252.605 339.888 253.405 339.388 253.905 C 338.788 254.505 337.788 255.205 336.088 255.205 C 333.388 255.205 331.388 253.105 331.388 250.405 C 331.388 247.705 333.488 245.605 336.088 245.605 C 337.488 245.605 338.588 246.205 339.388 246.905 L 340.688 245.605 C 339.588 244.605 338.188 243.805 336.188 243.805 C 332.588 243.805 329.488 246.805 329.488 250.405 C 329.488 254.005 332.588 257.005 336.188 257.005 C 338.188 257.005 339.588 256.405 340.788 255.105 C 341.988 253.905 342.388 252.205 342.388 250.905 C 342.388 250.505 342.388 250.105 342.288 249.805 L 336.088 249.805 Z M 381.488 251.205 C 381.088 250.205 380.088 248.505 377.888 248.505 C 375.688 248.505 373.888 250.205 373.888 252.805 C 373.888 255.205 375.688 257.105 378.088 257.105 C 379.988 257.105 381.188 255.905 381.588 255.205 L 380.188 254.205 C 379.688 254.905 379.088 255.405 378.088 255.405 C 377.088 255.405 376.488 255.005 375.988 254.105 L 381.688 251.705 L 381.488 251.205 Z M 375.688 252.605 C 375.688 251.005 376.988 250.105 377.888 250.105 C 378.588 250.105 379.288 250.505 379.488 251.005 L 375.688 252.605 Z M 370.988 256.705 L 372.888 256.705 L 372.888 244.205 L 370.988 244.205 L 370.988 256.705 Z M 367.988 249.405 C 367.488 248.905 366.688 248.405 365.688 248.405 C 363.588 248.405 361.588 250.305 361.588 252.705 C 361.588 255.105 363.488 256.905 365.688 256.905 C 366.688 256.905 367.488 256.405 367.888 255.905 L 367.988 255.905 L 367.988 256.505 C 367.988 258.105 367.088 259.005 365.688 259.005 C 364.588 259.005 363.788 258.205 363.588 257.505 L 361.988 258.205 C 362.488 259.305 363.688 260.705 365.788 260.705 C 367.988 260.705 369.788 259.405 369.788 256.305 L 369.788 248.705 L 367.988 248.705 L 367.988 249.405 Z M 365.788 255.305 C 364.488 255.305 363.388 254.205 363.388 252.705 C 363.388 251.205 364.488 250.105 365.788 250.105 C 367.088 250.105 368.088 251.205 368.088 252.705 C 368.088 254.205 367.088 255.305 365.788 255.305 Z M 390.188 244.205 L 385.688 244.205 L 385.688 256.705 L 387.588 256.705 L 387.588 252.005 L 390.188 252.005 C 392.288 252.005 394.288 250.505 394.288 248.105 C 394.288 245.705 392.288 244.205 390.188 244.205 Z M 390.288 250.205 L 387.588 250.205 L 387.588 245.905 L 390.288 245.905 C 391.688 245.905 392.488 247.105 392.488 248.005 C 392.388 249.105 391.588 250.205 390.288 250.205 Z M 401.788 248.405 C 400.388 248.405 398.988 249.005 398.488 250.305 L 400.188 251.005 C 400.588 250.305 401.188 250.105 401.888 250.105 C 402.888 250.105 403.788 250.705 403.888 251.705 L 403.888 251.805 C 403.588 251.605 402.788 251.305 401.988 251.305 C 400.188 251.305 398.388 252.305 398.388 254.105 C 398.388 255.805 399.888 256.905 401.488 256.905 C 402.788 256.905 403.388 256.305 403.888 255.705 L 403.988 255.705 L 403.988 256.705 L 405.788 256.705 L 405.788 251.905 C 405.588 249.705 403.888 248.405 401.788 248.405 Z M 401.588 255.305 C 400.988 255.305 400.088 255.005 400.088 254.205 C 400.088 253.205 401.188 252.905 402.088 252.905 C 402.888 252.905 403.288 253.105 403.788 253.305 C 403.588 254.505 402.588 255.305 401.588 255.305 Z M 412.088 248.705 L 409.988 254.105 L 409.888 254.105 L 407.688 248.705 L 405.688 248.705 L 408.988 256.305 L 407.088 260.505 L 408.988 260.505 L 414.088 248.705 L 412.088 248.705 Z M 395.288 256.705 L 397.188 256.705 L 397.188 244.205 L 395.288 244.205 L 395.288 256.705 Z" style="fill: rgb(255, 255, 255);" transform="matrix(0.9999999999999999, 0, 0, 0.9999999999999999, -2.842170943040401e-14, 0)"/>
  <g transform="matrix(0.9999999999999999, 0, 0, 0.9999999999999999, 288.38755131922784, 226.70476444675796)">
    <linearGradient id="SVGID_1_" gradientUnits="userSpaceOnUse" x1="21.8" y1="33.29" x2="5.017" y2="16.508" gradientTransform="matrix(1 0 0 -1 0 42)">
      <stop offset="0" stop-color="#00a0ff"/>
      <stop offset="0.007" stop-color="#00a1ff"/>
      <stop offset="0.26" stop-color="#00beff"/>
      <stop offset="0.512" stop-color="#00d2ff"/>
      <stop offset="0.76" stop-color="#00dfff"/>
      <stop offset="1" stop-color="#00e3ff"/>
    </linearGradient>
    <path class="st3" d="M10.4 7.5c-.3.3-.4.8-.4 1.4V31c0 .6.2 1.1.5 1.4l.1.1L23 20.1v-.2L10.4 7.5z" style="fill: url('#SVGID_1_');"/>
    <linearGradient id="SVGID_2_" gradientUnits="userSpaceOnUse" x1="33.834" y1="21.999" x2="9.637" y2="21.999" gradientTransform="matrix(1 0 0 -1 0 42)">
      <stop offset="0" stop-color="#ffe000"/>
      <stop offset="0.409" stop-color="#ffbd00"/>
      <stop offset="0.775" stop-color="orange"/>
      <stop offset="1" stop-color="#ff9c00"/>
    </linearGradient>
    <path class="st4" d="M27 24.3l-4.1-4.1V19.9l4.1-4.1.1.1 4.9 2.8c1.4.8 1.4 2.1 0 2.9l-5 2.7z" style="fill: url('#SVGID_2_');"/>
    <linearGradient id="SVGID_3_" gradientUnits="userSpaceOnUse" x1="24.827" y1="19.704" x2="2.069" y2="-3.054" gradientTransform="matrix(1 0 0 -1 0 42)">
      <stop offset="0" stop-color="#ff3a44"/>
      <stop offset="1" stop-color="#c31162"/>
    </linearGradient>
    <path class="st5" d="M27.1 24.2L22.9 20 10.4 32.5c.5.5 1.2.5 2.1.1l14.6-8.4" style="fill: url('#SVGID_3_');"/>
    <linearGradient id="SVGID_4_" gradientUnits="userSpaceOnUse" x1="7.297" y1="41.824" x2="17.46" y2="31.661" gradientTransform="matrix(1 0 0 -1 0 42)">
      <stop offset="0" stop-color="#32a071"/>
      <stop offset="0.069" stop-color="#2da771"/>
      <stop offset="0.476" stop-color="#15cf74"/>
      <stop offset="0.801" stop-color="#06e775"/>
      <stop offset="1" stop-color="#00f076"/>
    </linearGradient>
    <path class="st6" d="M27.1 15.8L12.5 7.5c-.9-.5-1.6-.4-2.1.1L22.9 20l4.2-4.2z" style="fill: url('#SVGID_4_');"/>
    <path class="st7" d="M27 24.1l-14.5 8.2c-.8.5-1.5.4-2 0l-.1.1.1.1c.5.4 1.2.5 2 0L27 24.1z" style="opacity: 0.2;"/>
    <path class="st8" d="M10.4 32.3c-.3-.3-.4-.8-.4-1.4v.1c0 .6.2 1.1.5 1.4v-.1h-.1zM32 21.3l-5 2.8.1.1 4.9-2.8c.7-.4 1-.9 1-1.4 0 .5-.4.9-1 1.3z" style="opacity: 0.12;"/>
    <path class="st9" d="M12.5 7.6L32 18.7c.6.4 1 .8 1 1.3 0-.5-.3-1-1-1.4L12.5 7.5c-1.4-.8-2.5-.2-2.5 1.4V9c0-1.5 1.1-2.2 2.5-1.4z" style="fill: rgb(255, 255, 255); opacity: 0.25;"/>
  </g>
</svg>