<svg width="30" height="30" viewBox="0 0 30 30" fill="none" xmlns="http://www.w3.org/2000/svg">
<circle opacity="0.2" cx="15" cy="15" r="15" fill="#1F62FB"/>
<path d="M12.1095 7.44727C13.9302 6.38935 16.1682 6.40785 17.9718 7.4957C19.7577 8.60572 20.8431 10.5868 20.8331 12.7178C20.7915 14.8349 19.6276 16.825 18.1727 18.3634C17.333 19.2553 16.3937 20.044 15.3739 20.7133C15.2688 20.7741 15.1538 20.8147 15.0344 20.8333C14.9195 20.8284 14.8076 20.7944 14.7088 20.7345C13.1519 19.7288 11.7859 18.445 10.6768 16.9449C9.74866 15.6928 9.22137 14.18 9.1665 12.612L9.17066 12.3839C9.24644 10.3372 10.3538 8.4674 12.1095 7.44727ZM15.7559 10.8623C15.0157 10.5477 14.1624 10.7186 13.5943 11.2952C13.0262 11.8719 12.8554 12.7406 13.1616 13.4956C13.4679 14.2507 14.1908 14.7432 14.9928 14.7432C15.5183 14.7469 16.0233 14.5365 16.3955 14.1587C16.7677 13.7809 16.9761 13.2672 16.9742 12.7319C16.977 11.915 16.4961 11.1769 15.7559 10.8623Z" fill="#1F62FB"/>
<path opacity="0.4" d="M14.9997 23.3333C17.3009 23.3333 19.1663 22.9602 19.1663 22.5C19.1663 22.0397 17.3009 21.6666 14.9997 21.6666C12.6985 21.6666 10.833 22.0397 10.833 22.5C10.833 22.9602 12.6985 23.3333 14.9997 23.3333Z" fill="#1F62FB"/>
</svg>
