<svg width="26" height="16" viewBox="0 0 26 16" fill="none" xmlns="http://www.w3.org/2000/svg">
<path d="M16.3539 1.68408H9.63672V14.0646H16.3539V1.68408Z" fill="#FF5F00"/>
<path d="M10.062 7.87366C10.061 6.68132 10.3244 5.50436 10.8324 4.43189C11.3404 3.35941 12.0796 2.41953 12.9941 1.68339C11.8616 0.770405 10.5015 0.202633 9.0693 0.0449686C7.63707 -0.112695 6.19049 0.146105 4.89489 0.791801C3.59929 1.4375 2.50695 2.44403 1.74273 3.69636C0.978509 4.94868 0.573242 6.39627 0.573242 7.87366C0.573242 9.35105 0.978509 10.7986 1.74273 12.051C2.50695 13.3033 3.59929 14.3098 4.89489 14.9555C6.19049 15.6012 7.63707 15.86 9.0693 15.7023C10.5015 15.5447 11.8616 14.9769 12.9941 14.0639C12.0796 13.3278 11.3404 12.3879 10.8324 11.3154C10.3244 10.2429 10.061 9.06599 10.062 7.87366Z" fill="#EB001B"/>
<path d="M25.4161 7.87365C25.4161 9.35102 25.0109 10.7986 24.2467 12.0509C23.4826 13.3033 22.3903 14.3098 21.0947 14.9555C19.7991 15.6012 18.3525 15.86 16.9203 15.7023C15.4881 15.5447 14.1281 14.9769 12.9956 14.0639C13.9093 13.327 14.648 12.387 15.1559 11.3147C15.6638 10.2424 15.9277 9.0658 15.9277 7.87365C15.9277 6.68151 15.6638 5.50492 15.1559 4.43262C14.648 3.36031 13.9093 2.42027 12.9956 1.68339C14.1281 0.770401 15.4881 0.202629 16.9203 0.0449666C18.3525 -0.112695 19.7991 0.146116 21.0947 0.791819C22.3903 1.43752 23.4826 2.44406 24.2467 3.69638C25.0109 4.94871 25.4161 6.39629 25.4161 7.87365Z" fill="#F79E1B"/>
<path d="M24.68 12.7524V12.4989H24.7797V12.4473H24.5259V12.4989H24.6256V12.7524H24.68ZM25.1727 12.7524V12.4468H25.0949L25.0054 12.657L24.9159 12.4468H24.8381V12.7524H24.893V12.5219L24.977 12.7206H25.0339L25.1178 12.5214V12.7524H25.1727Z" fill="#F79E1B"/>
</svg>
