<svg width="32" height="31" viewBox="0 0 32 31" fill="none" xmlns="http://www.w3.org/2000/svg">
<path d="M28.157 3.2249C27.4999 2.58576 26.5275 2.34937 25.6208 2.59952L4.47738 8.41432C3.52074 8.66698 2.84268 9.38867 2.66002 10.3042C2.47342 11.2373 3.1252 12.423 3.97672 12.9183L10.5878 16.7607C11.2659 17.1559 12.1411 17.0571 12.7022 16.5218L20.2725 9.31612C20.6536 8.93964 21.2844 8.93964 21.6655 9.31612C22.0465 9.6776 22.0465 10.2667 21.6655 10.6419L14.0819 17.8476C13.5195 18.3829 13.4144 19.2134 13.8283 19.8601L17.8678 26.1764C18.3408 26.9256 19.1556 27.3521 20.0491 27.3521C20.1543 27.3521 20.2725 27.3521 20.3777 27.3384C21.4026 27.2146 22.2174 26.5504 22.5196 25.6123L28.7877 5.63888C29.0637 4.78836 28.814 3.86279 28.157 3.2249Z" fill="#1F62FB"/>
<path opacity="0.4" d="M12.4197 23.9424C12.8034 24.3089 12.8034 24.903 12.4197 25.2695L10.6247 26.9768C10.4329 27.1607 10.1806 27.252 9.92826 27.252C9.67596 27.252 9.42365 27.1607 9.2318 26.9768C8.84678 26.6103 8.84678 26.0175 9.2318 25.651L11.0255 23.9424C11.4105 23.5772 12.0347 23.5772 12.4197 23.9424ZM11.3899 19.2045C11.7736 19.571 11.7736 20.1651 11.3899 20.5316L9.59488 22.2389C9.40302 22.4228 9.15072 22.5141 8.89842 22.5141C8.64612 22.5141 8.39382 22.4228 8.20196 22.2389C7.81694 21.8724 7.81694 21.2796 8.20196 20.9131L9.99567 19.2045C10.3807 18.8393 11.0049 18.8393 11.3899 19.2045ZM6.44741 17.7131C6.83112 18.0796 6.83112 18.6737 6.44741 19.0402L4.65239 20.7475C4.46053 20.9313 4.20823 21.0226 3.95593 21.0226C3.70363 21.0226 3.45133 20.9313 3.25947 20.7475C2.87445 20.381 2.87445 19.7881 3.25947 19.4217L5.05318 17.7131C5.4382 17.3479 6.06239 17.3479 6.44741 17.7131Z" fill="#1F62FB"/>
</svg>
