<svg width="123" height="123" viewBox="0 0 123 123" fill="none" xmlns="http://www.w3.org/2000/svg">
<path d="M61.5 0C27.552 0 0 27.552 0 61.5C0 95.448 27.552 123 61.5 123C95.448 123 123 95.448 123 61.5C123 27.552 95.448 0 61.5 0ZM61.5 18.45C71.709 18.45 79.95 26.691 79.95 36.9C79.95 47.109 71.709 55.35 61.5 55.35C51.291 55.35 43.05 47.109 43.05 36.9C43.05 26.691 51.291 18.45 61.5 18.45ZM61.5 105.78C46.125 105.78 32.5335 97.908 24.6 85.977C24.7845 73.7385 49.2 67.035 61.5 67.035C73.7385 67.035 98.2155 73.7385 98.4 85.977C90.4665 97.908 76.875 105.78 61.5 105.78Z" fill="#C7C8D2"/>
</svg>
