<svg width="36" height="12" viewBox="0 0 36 12" fill="none" xmlns="http://www.w3.org/2000/svg">
<g clip-path="url(#clip0_37_800)">
<path d="M15.5999 11.5983H12.6836L14.5076 0.856934H17.4237L15.5999 11.5983Z" fill="#00579F"/>
<path d="M26.1718 1.11941C25.5966 0.902076 24.6843 0.662109 23.5562 0.662109C20.6763 0.662109 18.6483 2.12469 18.6358 4.21574C18.6119 5.75851 20.0878 6.6154 21.1917 7.12981C22.3199 7.65546 22.7035 7.99855 22.7035 8.46709C22.692 9.18669 21.7918 9.51839 20.9521 9.51839C19.7878 9.51839 19.164 9.34737 18.2159 8.94702L17.8319 8.7754L17.4238 11.1866C18.1078 11.4834 19.368 11.7467 20.6763 11.7583C23.7362 11.7583 25.7283 10.3183 25.7519 8.08998C25.7636 6.86722 24.9842 5.93028 23.304 5.16467C22.2841 4.67319 21.6594 4.3418 21.6594 3.83893C21.6714 3.38178 22.1877 2.91354 23.3391 2.91354C24.2872 2.89061 24.9838 3.10764 25.5115 3.32482L25.7752 3.43888L26.1718 1.11941Z" fill="#00579F"/>
<path d="M30.0476 7.79303C30.2877 7.17595 31.2119 4.78767 31.2119 4.78767C31.1997 4.81061 31.4516 4.1592 31.5956 3.75931L31.7994 4.68485C31.7994 4.68485 32.3516 7.25599 32.4715 7.79303C32.0158 7.79303 30.6236 7.79303 30.0476 7.79303ZM33.6473 0.856934H31.3916C30.696 0.856934 30.1675 1.05103 29.8674 1.74815L25.5356 11.5982H28.5956C28.5956 11.5982 29.0993 10.2724 29.2076 9.9869C29.5433 9.9869 32.52 9.9869 32.9519 9.9869C33.0356 10.364 33.2998 11.5982 33.2998 11.5982H36L33.6473 0.856934Z" fill="#00579F"/>
<path d="M10.2478 0.856934L7.39185 8.18153L7.07976 6.69601C6.55175 4.98193 4.89581 3.1196 3.04785 2.19361L5.66382 11.5869H8.74768L13.3315 0.856934H10.2478Z" fill="#00579F"/>
<path d="M4.73997 0.856934H0.0480007L0 1.07397C3.66003 1.96534 6.08399 4.11395 7.07989 6.69647L6.05991 1.75985C5.89199 1.07381 5.37594 0.879563 4.73997 0.856934Z" fill="#FAA61A"/>
</g>
<defs>
<clipPath id="clip0_37_800">
<rect width="36" height="12" fill="white"/>
</clipPath>
</defs>
</svg>
