<svg width="319" height="223" viewBox="0 0 319 223" fill="none" xmlns="http://www.w3.org/2000/svg">
<g clip-path="url(#clip0_43_6118)">
<path d="M283.228 90.5955C277.552 82.8305 262.46 58.0046 262.46 58.0046C260.26 55.786 254.848 52.2807 250.569 55.786C246.29 59.2914 250.712 70.2068 250.712 70.2068C247.94 67.012 239.14 55.3201 233.277 61.6098C229.053 66.1468 232.881 71.4048 232.881 71.4048C231.862 70.5625 230.572 70.1275 229.255 70.1828C227.939 70.238 226.688 70.7796 225.742 71.7043C221.287 75.6867 226.336 82.4977 226.336 82.4977L229.152 87.1012C229.152 87.1012 226.237 84.8161 222.805 88.4989C219.703 91.8268 223.905 97.828 223.905 97.828L240.625 124.085C240.625 132.959 240.625 136.198 240.625 143.364C240.625 160.946 249.953 163.243 249.953 163.243V192.084L289.883 192.184V113.092C289.883 113.092 290.664 100.812 283.228 90.5955Z" fill="#F4CFB3"/>
<path d="M245.63 201.979C245.259 201.976 244.903 201.825 244.642 201.559C244.38 201.293 244.233 200.934 244.233 200.559L244.299 178.251C244.301 178.065 244.338 177.881 244.411 177.709C244.483 177.537 244.588 177.381 244.719 177.251C244.851 177.12 245.007 177.016 245.179 176.946C245.35 176.876 245.533 176.841 245.718 176.843L294.822 176.953C295.007 176.955 295.19 176.993 295.36 177.066C295.53 177.139 295.685 177.244 295.815 177.377C295.944 177.51 296.047 177.667 296.116 177.84C296.186 178.013 296.221 178.198 296.219 178.384L296.153 200.681C296.153 201.058 296.005 201.419 295.741 201.685C295.477 201.951 295.119 202.101 294.745 202.101L245.63 201.979Z" fill="#FBA06A"/>
<path d="M237.71 221.536L237.842 199.35C237.815 199.034 237.861 198.717 237.975 198.421C238.09 198.126 238.269 197.861 238.501 197.647C238.732 197.433 239.01 197.275 239.311 197.186C239.612 197.096 239.93 197.078 240.24 197.131L296.164 197.309C299.156 197.309 299.156 198.973 299.156 199.749L299.035 221.713" fill="#12B389"/>
<path d="M203.423 15.3636H247.577C256.167 15.3636 263.131 22.3862 263.131 31.049V139.493C263.131 148.156 256.167 155.178 247.577 155.178H203.423C194.833 155.178 187.869 148.156 187.869 139.493V31.049C187.869 22.3862 194.833 15.3636 203.423 15.3636Z" fill="#E6EDEF" stroke="#284356" stroke-width="1.5" stroke-linecap="round" stroke-linejoin="round"/>
<path d="M219.351 142.776C219.351 144.003 219.712 145.202 220.387 146.221C221.063 147.241 222.023 148.036 223.147 148.505C224.27 148.975 225.507 149.097 226.7 148.858C227.892 148.619 228.988 148.028 229.848 147.161C230.708 146.294 231.294 145.189 231.531 143.986C231.768 142.783 231.646 141.536 231.181 140.403C230.715 139.27 229.927 138.302 228.916 137.62C227.905 136.939 226.716 136.575 225.5 136.575C223.869 136.575 222.305 137.229 221.152 138.392C219.999 139.555 219.351 141.132 219.351 142.776Z" fill="#E6EDEF" stroke="#284356" stroke-width="1.5" stroke-linecap="round" stroke-linejoin="round"/>
<path d="M193.963 32.9236H257.037V130.974H193.963V32.9236Z" fill="#76D8E3" stroke="#284356" stroke-width="1.5" stroke-linecap="round" stroke-linejoin="round"/>
<path d="M225.126 96.4414C211.457 96.4414 200.376 85.2669 200.376 71.4825C200.376 57.698 211.457 46.5235 225.126 46.5235C238.795 46.5235 249.876 57.698 249.876 71.4825C249.876 85.2669 238.795 96.4414 225.126 96.4414Z" fill="white" stroke="#284356" stroke-width="0.75" stroke-linecap="round" stroke-linejoin="round"/>
<path d="M234.201 24.726C234.201 25.2306 234.35 25.7239 234.628 26.1435C234.906 26.563 235.301 26.8901 235.763 27.0832C236.225 27.2763 236.734 27.3268 237.225 27.2283C237.716 27.1299 238.166 26.8869 238.52 26.5301C238.874 26.1733 239.115 25.7187 239.213 25.2238C239.31 24.7288 239.26 24.2158 239.069 23.7496C238.877 23.2834 238.553 22.885 238.137 22.6046C237.721 22.3243 237.232 22.1747 236.731 22.1747C236.06 22.1747 235.417 22.4435 234.942 22.9219C234.468 23.4004 234.201 24.0493 234.201 24.726Z" fill="#284356"/>
<path d="M280.093 119.748L251.053 92.326C251.053 92.326 245.674 86.0585 240.174 91.4274C235.499 95.9866 238.381 102.332 241.351 105.759L259.039 127.779V142.865C259.039 142.865 258.148 152.582 262.009 156.831C263.982 159.133 266.503 160.893 269.335 161.945" fill="#F4CFB3"/>
<path d="M318.175 222.068H0.824763" stroke="#FFC95D" stroke-width="1.5" stroke-linecap="round" stroke-linejoin="round"/>
<path d="M238.073 80.4455C238.073 80.7397 237.957 81.0219 237.751 81.2299C237.544 81.4379 237.264 81.5548 236.973 81.5548H212.553C212.261 81.5548 211.981 81.4379 211.775 81.2299C211.569 81.0219 211.453 80.7397 211.453 80.4455V78.2269C211.453 77.9327 211.569 77.6506 211.775 77.4425C211.981 77.2345 212.261 77.1176 212.553 77.1176H236.962C237.253 77.1176 237.533 77.2345 237.74 77.4425C237.946 77.6506 238.062 77.9327 238.062 78.2269L238.073 80.4455Z" fill="#FFD067" stroke="#284356" stroke-width="0.75" stroke-linecap="round" stroke-linejoin="round"/>
<path d="M209.275 74.4221C209.275 74.7848 209.346 75.144 209.484 75.4791C209.621 75.8142 209.823 76.1187 210.077 76.3752C210.332 76.6317 210.634 76.8351 210.966 76.9739C211.298 77.1128 211.654 77.1842 212.014 77.1842H237.138C237.868 77.1842 238.567 76.892 239.083 76.3719C239.598 75.8519 239.888 75.1465 239.888 74.411C239.888 73.6755 239.598 72.9701 239.083 72.45C238.567 71.9299 237.868 71.6378 237.138 71.6378H212.025C211.663 71.6378 211.305 71.7099 210.97 71.8499C210.636 71.99 210.332 72.1952 210.077 72.4539C209.821 72.7126 209.619 73.0197 209.481 73.3574C209.344 73.6951 209.274 74.057 209.275 74.4221Z" fill="#C1A07D" stroke="#284356" stroke-width="0.75" stroke-linecap="round" stroke-linejoin="round"/>
<path opacity="0.4" d="M236.874 74.2335H212.322C211.847 74.2355 211.382 74.3731 210.981 74.6302C210.58 74.8873 210.259 75.2536 210.056 75.6867C209.808 75.3282 209.67 74.9037 209.66 74.4665C209.66 73.0687 210.518 72.0815 212.322 72.0704H236.874C237.21 72.0382 237.548 72.0792 237.867 72.1904C238.185 72.3017 238.477 72.4806 238.721 72.7151C238.965 72.9497 239.156 73.2344 239.281 73.5499C239.407 73.8654 239.464 74.2045 239.448 74.5441C239.421 74.931 239.316 75.3084 239.14 75.6534C238.932 75.2265 238.609 74.8671 238.209 74.6161C237.808 74.3651 237.346 74.2325 236.874 74.2335Z" fill="white"/>
<path d="M238.711 71.7043C238.917 71.7075 239.122 71.6667 239.312 71.5845C239.501 71.5023 239.671 71.3806 239.811 71.2273C239.939 71.0885 240.037 70.9238 240.098 70.7441C240.159 70.5643 240.181 70.3736 240.163 70.1846C239.889 66.2972 238.164 62.659 235.336 60.0028C232.508 57.3466 228.787 55.8697 224.922 55.8697C221.058 55.8697 217.337 57.3466 214.509 60.0028C211.681 62.659 209.956 66.2972 209.682 70.1846C209.666 70.3744 209.691 70.5653 209.753 70.745C209.816 70.9247 209.915 71.0891 210.045 71.2273C210.187 71.376 210.358 71.4932 210.547 71.5715C210.737 71.6498 210.94 71.6875 211.145 71.6821L238.711 71.7043Z" fill="#FFD067"/>
<path d="M224.884 56.2963C221.122 56.3012 217.501 57.7436 214.752 60.3331C212.003 62.9225 210.328 66.4665 210.067 70.2512C210.053 70.3928 210.069 70.5358 210.113 70.6708C210.158 70.8059 210.231 70.9298 210.326 71.0346C210.422 71.1393 210.538 71.2225 210.668 71.2787C210.798 71.3348 210.938 71.3627 211.079 71.3604H238.722C238.858 71.3637 238.994 71.3384 239.121 71.2862C239.247 71.234 239.361 71.1559 239.457 71.0569C239.552 70.9579 239.625 70.8401 239.673 70.711C239.721 70.5819 239.741 70.4442 239.734 70.3066C239.467 66.5221 237.787 62.9804 235.034 60.395C232.28 57.8097 228.657 56.3728 224.895 56.374M224.895 55.542C228.861 55.5532 232.677 57.0729 235.581 59.7976C238.485 62.5223 240.262 66.2514 240.559 70.2401C240.575 70.4853 240.543 70.7314 240.464 70.9638C240.384 71.1963 240.26 71.4103 240.097 71.5934C239.92 71.7824 239.707 71.933 239.471 72.036C239.234 72.139 238.979 72.1922 238.722 72.1924H211.079C210.821 72.1912 210.566 72.1353 210.331 72.0282C210.096 71.9212 209.886 71.7655 209.715 71.5712C209.545 71.3918 209.415 71.1788 209.332 70.9459C209.248 70.7129 209.214 70.465 209.231 70.2179C209.519 66.2271 211.29 62.4929 214.19 59.7618C217.09 57.0307 220.905 55.5039 224.873 55.4865L224.895 55.542Z" fill="#284356"/>
<path d="M214.676 68.4652C214.501 68.6403 214.264 68.738 214.018 68.737C213.771 68.7359 213.535 68.6362 213.362 68.4597C213.188 68.2831 213.091 68.0443 213.092 67.7957C213.093 67.5471 213.192 67.3091 213.367 67.1341C213.719 66.768 215.138 66.6571 215.138 66.6571C215.138 66.6571 215.039 68.0991 214.676 68.4652Z" fill="white"/>
<path d="M219.175 61.3103C219.349 61.4854 219.446 61.7228 219.446 61.9703C219.446 62.2179 219.349 62.4553 219.175 62.6304C219.002 62.8054 218.766 62.9038 218.521 62.9038C218.275 62.9038 218.04 62.8054 217.866 62.6304C217.582 62.0766 217.421 61.4673 217.393 60.8444C217.393 60.8444 218.812 60.9442 219.175 61.3103Z" fill="white"/>
<path d="M235.125 68.443C235.205 68.5503 235.306 68.639 235.423 68.7032C235.539 68.7673 235.668 68.8053 235.801 68.8146C235.933 68.8239 236.066 68.8043 236.191 68.7571C236.315 68.7099 236.428 68.6363 236.521 68.5411C236.615 68.446 236.687 68.3317 236.733 68.2059C236.778 68.0802 236.797 67.9459 236.786 67.8124C236.776 67.6788 236.737 67.5491 236.673 67.4321C236.608 67.315 236.519 67.2134 236.412 67.1341C235.859 66.847 235.251 66.6843 234.63 66.6571C234.665 67.2814 234.834 67.8907 235.125 68.443Z" fill="white"/>
<path d="M223.652 67.7996C223.652 68.0468 223.749 68.2838 223.923 68.4585C224.096 68.6333 224.331 68.7314 224.576 68.7314C224.821 68.7314 225.056 68.6333 225.229 68.4585C225.403 68.2838 225.5 68.0468 225.5 67.7996C225.5 67.2783 224.576 66.1912 224.576 66.1912C224.576 66.1912 223.652 67.2783 223.652 67.7996Z" fill="white"/>
<path d="M225.489 58.5926C225.489 58.3454 225.391 58.1084 225.218 57.9337C225.045 57.7589 224.81 57.6608 224.565 57.6608C224.32 57.6608 224.085 57.7589 223.911 57.9337C223.738 58.1084 223.641 58.3454 223.641 58.5926C223.641 59.1028 224.565 60.1899 224.565 60.1899C224.565 60.1899 225.489 59.1028 225.489 58.5926Z" fill="white"/>
<path d="M230.593 61.2992C230.419 61.4743 230.322 61.7117 230.322 61.9592C230.322 62.2068 230.419 62.4442 230.593 62.6193C230.767 62.7943 231.002 62.8927 231.248 62.8927C231.493 62.8927 231.728 62.7943 231.902 62.6193C232.187 62.0618 232.348 61.4487 232.375 60.8222C231.754 60.8494 231.146 61.0122 230.593 61.2992Z" fill="white"/>
<path d="M235.708 85.9032H229.845" stroke="#284356" stroke-width="0.75" stroke-linecap="round" stroke-linejoin="round"/>
<path d="M224.521 85.9032H222.299" stroke="#284356" stroke-width="0.75" stroke-linecap="round" stroke-linejoin="round"/>
<path d="M228.789 88.9759H221.463" stroke="#284356" stroke-width="0.75" stroke-linecap="round" stroke-linejoin="round"/>
<path d="M216.832 85.9032H212.091" stroke="#284356" stroke-width="0.75" stroke-linecap="round" stroke-linejoin="round"/>
<path d="M213.125 112.615H237.875C238.483 112.615 238.975 113.111 238.975 113.724V121.489C238.975 122.102 238.483 122.598 237.875 122.598H213.125C212.518 122.598 212.025 122.102 212.025 121.489V113.724C212.025 113.111 212.518 112.615 213.125 112.615Z" fill="white" stroke="#284356" stroke-width="0.75" stroke-linecap="round" stroke-linejoin="round"/>
<path d="M227.095 114.745C228.283 114.745 229.636 115.321 229.482 117.673C229.509 117.995 229.466 118.318 229.356 118.621C229.246 118.924 229.072 119.199 228.845 119.427C228.619 119.655 228.346 119.831 228.046 119.942C227.746 120.053 227.425 120.096 227.106 120.069C225.522 120.069 224.851 118.749 224.906 117.418C224.917 116.409 225.027 114.767 227.095 114.745Z" stroke="#284356" stroke-width="0.75" stroke-linecap="round" stroke-linejoin="round"/>
<path d="M223.014 114.412V119.925" stroke="#284356" stroke-width="0.75" stroke-linecap="round" stroke-linejoin="round"/>
<path d="M220.473 116.043L222.827 118.35" stroke="#284356" stroke-width="0.75" stroke-linecap="round" stroke-linejoin="round"/>
<path d="M222.068 117.662L220.319 120.036" stroke="#284356" stroke-width="0.75" stroke-linecap="round" stroke-linejoin="round"/>
<path d="M227.7 24.7149H213.466" stroke="#284356" stroke-width="1.5" stroke-linecap="round" stroke-linejoin="round"/>
<path d="M113.861 25.2363C112.582 31.2981 113.114 37.6062 115.39 43.3631C117.666 49.12 121.583 54.0671 126.647 57.5789C131.711 61.0908 137.693 63.0096 143.838 63.0928C149.983 63.1761 156.015 61.4199 161.17 58.0465C166.326 54.6731 170.373 49.8339 172.802 44.1407C175.23 38.4475 175.93 32.156 174.813 26.0618C173.696 19.9675 170.812 14.3442 166.526 9.90271C162.239 5.46125 156.744 2.40113 150.733 1.10929C146.741 0.251293 142.62 0.194799 138.607 0.943033C134.593 1.69127 130.765 3.22957 127.341 5.47007C123.917 7.71057 120.964 10.6094 118.651 14.0009C116.338 17.3925 114.71 21.2103 113.861 25.2363Z" fill="#76D8E3"/>
<path d="M138.6 21.7531C138.901 20.4428 139.545 19.2376 140.463 18.2624C141.382 17.2871 142.543 16.5774 143.825 16.2067C143.789 15.8657 143.807 15.5211 143.88 15.1861C144.793 10.8821 150.48 10.871 150.48 10.871C150.166 11.1669 149.924 11.5323 149.773 11.9384C149.622 12.3445 149.567 12.7803 149.611 13.2116C149.754 14.3209 151.349 15.1085 151.008 16.717C150.935 17.0516 150.813 17.3732 150.645 17.6709C151.665 18.5301 152.439 19.6482 152.888 20.9098C153.337 22.1714 153.443 23.531 153.197 24.848C153.929 25.1991 154.522 25.7883 154.881 26.5208C155.24 27.2533 155.344 28.0864 155.177 28.8858L152.548 30.2946L141.801 26.8891L135.201 24.5818C135.381 23.7996 135.812 23.0989 136.426 22.5878C137.04 22.0766 137.804 21.7833 138.6 21.7531Z" fill="#EFABD0"/>
<path opacity="0.14" d="M138.611 21.7309C138.91 20.4214 139.552 19.2166 140.468 18.2413C141.385 17.266 142.544 16.5559 143.825 16.1845C143.792 15.8429 143.815 15.4984 143.891 15.164C144.441 12.5682 146.729 11.5366 148.467 11.1261C147.137 12.2919 146.269 13.9032 146.025 15.6631C145.954 15.9925 145.902 16.3259 145.871 16.6615C144.361 18.3472 143.361 20.4334 142.989 22.6738C142.296 22.9068 141.537 24.2157 141.185 25.8908L138.457 28.1759L135.157 24.5929C135.326 23.7919 135.76 23.0726 136.387 22.5527C137.015 22.0328 137.799 21.7431 138.611 21.7309Z" fill="#284356"/>
<path d="M134.871 26.0904L154.825 30.3279L148.335 48.8086C148.223 49.1221 148.001 49.3838 147.712 49.545C147.423 49.7062 147.085 49.7559 146.762 49.685L134.365 47.0227C134.037 46.9584 133.744 46.7749 133.541 46.5071C133.338 46.2392 133.24 45.9056 133.265 45.5695L134.871 26.0904Z" fill="#FFD067"/>
<path opacity="0.14" d="M136.686 47.5108L134.409 47.0227C134.081 46.9584 133.788 46.7749 133.585 46.5071C133.382 46.2392 133.284 45.9056 133.309 45.5695L134.871 26.0904L140.954 27.3994L136.686 47.5108Z" fill="#284356"/>
<path d="M135.15 24.4428L155.194 28.7465C155.627 28.8397 155.904 29.2698 155.812 29.7072L155.436 31.4865C155.344 31.924 154.917 32.2031 154.483 32.1099L134.44 27.8062C134.006 27.713 133.729 27.2829 133.822 26.8455L134.197 25.0662C134.29 24.6287 134.716 24.3496 135.15 24.4428Z" fill="#FFD067"/>
<path d="M45.925 59.602C48.8499 64.1625 53.0504 67.7456 57.9951 69.8982C62.9398 72.0508 68.4065 72.676 73.7037 71.6948C79.0008 70.7136 83.8903 68.1701 87.7537 64.386C91.6171 60.6019 94.2807 55.7472 95.4076 50.4362C96.5345 45.1252 96.074 39.5965 94.0845 34.5494C92.0949 29.5024 88.6656 25.1638 84.2304 22.0826C79.7953 19.0014 74.5535 17.316 69.1683 17.2395C63.7831 17.1631 58.4964 18.6991 53.977 21.6533C47.922 25.6113 43.6727 31.8314 42.1629 38.9471C40.6531 46.0628 42.0062 53.4919 45.925 59.602Z" fill="#EFABD0"/>
<path d="M75.0422 55.6751C75.1007 55.5834 75.127 55.4746 75.1171 55.3661C75.1071 55.2575 75.0614 55.1554 74.9872 55.0761L65.8022 45.6472C65.6646 45.4958 65.5883 45.2979 65.5883 45.0925C65.5883 44.8872 65.6646 44.6893 65.8022 44.5379L67.0672 43.2733C67.2135 43.127 67.4112 43.0449 67.6172 43.0449C67.8232 43.0449 68.0209 43.127 68.1672 43.2733L77.1542 52.3362C77.2366 52.4037 77.3395 52.4406 77.4457 52.4406C77.5519 52.4406 77.6548 52.4037 77.7372 52.3362C78.1909 51.9493 78.7783 51.76 79.3703 51.8099C79.9624 51.8599 80.5106 52.1449 80.8942 52.6024C81.2778 53.0599 81.4655 53.6523 81.416 54.2494C81.3665 54.8464 81.0838 55.3992 80.6302 55.786C80.42 56.0024 80.1681 56.1731 79.89 56.2876C79.6119 56.4021 79.3135 56.4579 79.0132 56.4516C78.9187 56.4486 78.8268 56.4828 78.757 56.547C78.6871 56.6112 78.6449 56.7004 78.6392 56.7955C78.6328 57.1885 78.5123 57.571 78.2924 57.8955C78.0725 58.2201 77.7631 58.4724 77.4023 58.6212C77.0416 58.77 76.6455 58.8088 76.2631 58.7327C75.8807 58.6566 75.5288 58.469 75.2512 58.1932C74.9113 57.8753 74.7015 57.4409 74.6628 56.975C74.6241 56.5092 74.7594 56.0456 75.0422 55.6751Z" fill="#FCE4B6" stroke="#284356" stroke-width="0.5" stroke-linecap="round" stroke-linejoin="round"/>
<path d="M54.5711 31.7589C57.3321 29.1077 61.9851 28.2203 65.2081 31.2819C69.7951 35.6525 69.0361 41.0658 71.9181 45.5473L73.0181 46.6566C73.1632 46.8041 73.2446 47.0035 73.2446 47.2113C73.2446 47.419 73.1632 47.6184 73.0181 47.7659C72.4901 48.3095 73.6341 48.8086 72.5341 49.6628C72.5341 49.6628 72.4021 49.7515 72.5341 49.9623C72.5918 50.0936 72.608 50.2397 72.5805 50.3806C72.5529 50.5215 72.4829 50.6505 72.3801 50.7499C72.2446 50.8827 72.0631 50.957 71.8741 50.957C71.6852 50.957 71.5036 50.8827 71.3681 50.7499L71.0271 50.3949C70.9891 50.354 70.9431 50.3213 70.892 50.299C70.8409 50.2766 70.7858 50.2651 70.7301 50.2651C70.6744 50.2651 70.6194 50.2766 70.5683 50.299C70.5172 50.3213 70.4712 50.354 70.4331 50.3949C70.2869 50.5412 70.0892 50.6233 69.8831 50.6233C69.6771 50.6233 69.4794 50.5412 69.3331 50.3949L68.2331 49.2302C63.8331 46.3349 58.4101 47.0892 54.0871 42.4635C51.0621 39.2355 51.9421 34.5432 54.5711 31.7589Z" fill="#A04202"/>
<path d="M65.3398 34.9647C64.8034 33.7426 63.875 32.7378 62.7038 32.1121C61.5327 31.4864 60.1869 31.276 58.8828 31.5148" stroke="#C97339" stroke-width="0.5" stroke-linecap="round" stroke-linejoin="round"/>
<path d="M78.496 53.0461C78.8207 53.0569 79.1341 53.1695 79.3924 53.3684C79.6507 53.5672 79.8411 53.8423 79.937 54.1554" stroke="#FFF2DC" stroke-width="0.5" stroke-linecap="round" stroke-linejoin="round"/>
<path d="M118.085 78.2269C130.185 73.2019 148.698 90.4291 159.401 116.73C170.104 143.031 168.96 168.401 156.838 173.415C144.716 178.429 126.214 161.213 115.511 134.911C104.808 108.61 105.963 83.2076 118.085 78.2269Z" fill="#FBA06A"/>
<path d="M136.499 159.582C145.739 165.128 157.553 161.324 161.909 157.463C161.909 157.463 161.909 157.552 161.909 157.596C161.909 160.347 157.509 170.642 143.737 168.002C137.368 166.781 131.835 156.753 136.499 159.582Z" fill="#DD9C5B"/>
<path d="M115.302 102.698C122.507 107.035 139.502 101.999 144.727 96.5191C144.727 96.5856 144.782 96.63 144.793 96.6966C145.057 100.268 136.191 112.227 121.407 111.117C111.397 110.396 109.23 99.0482 115.302 102.698Z" fill="#FFCE9C"/>
<path d="M120.329 121.389C128.634 126.381 148.181 120.58 154.231 114.268C154.231 114.334 154.308 114.39 154.308 114.467C154.627 118.583 142.208 132.882 127.369 131.107C115.885 129.798 113.333 117.174 120.329 121.389Z" fill="#FFCE9C"/>
<path d="M126.489 141.035C134.783 146.038 154.341 140.225 160.391 133.924C160.391 133.991 160.457 134.035 160.457 134.113C160.776 138.239 152.856 153.647 135.157 151.717C123.618 150.475 119.493 136.831 126.489 141.035Z" fill="#DD9C5B"/>
<path d="M130.988 82.7972C130.988 82.7972 130.988 82.9081 130.988 82.9636C130.713 88.0774 118.415 96.275 112.739 90.3293C111.815 89.3642 113.256 85.1156 114.587 85.282C120.274 85.9919 127.622 84.8827 130.988 82.7972Z" fill="#FFCE9C"/>
<path d="M159.313 123.708C151.03 137.485 161.227 142.843 168.696 128.589C173.877 118.694 176.396 113.059 181.742 96.7187C169.378 108.788 165.825 112.781 159.313 123.708Z" fill="#12B389"/>
<path d="M144.045 123.808C152.526 137.463 142.406 142.965 134.739 128.833C129.404 119.015 126.775 113.38 121.22 97.1514C133.76 109.054 137.335 112.992 144.045 123.808Z" fill="#12B389"/>
<path d="M153.483 127.124C150.282 142.909 160.622 145.039 163.834 129.254C167.046 113.469 169.708 100.302 168.509 79.669C161.869 94.9141 156.833 110.82 153.483 127.124Z" fill="#12B389"/>
<path d="M145.97 125.926C145.97 142.033 156.497 142.055 156.53 125.926C156.563 109.797 156.53 96.3749 151.338 76.3966C147.832 92.6711 146.033 109.272 145.97 125.926Z" fill="#12B389"/>
<path d="M150.293 126.315C153.725 142.044 143.418 144.34 139.986 128.6C136.554 112.859 133.683 99.7582 134.585 79.0922C141.444 94.2358 146.709 110.063 150.293 126.315Z" fill="#12B389"/>
<path d="M65.3179 85.9476L73.1938 81.5215L73.1719 90.8063L65.3179 85.9476Z" fill="#E8928B"/>
<path d="M134.002 210.088L141.878 205.662L134.024 200.792L134.002 210.088Z" fill="white" stroke="#284356" stroke-width="1.5" stroke-linecap="round" stroke-linejoin="round"/>
<path d="M71.5988 87.9776C69.8667 88.9462 68.3408 90.2495 67.1082 91.8128C65.8756 93.3762 64.9604 95.1691 64.415 97.0892C63.8695 99.0093 63.7045 101.019 63.9292 103.003C64.1539 104.988 64.7641 106.908 65.7248 108.655L114.939 197.597C116.886 201.117 120.14 203.713 123.986 204.814C127.831 205.914 131.952 205.429 135.443 203.465C138.933 201.502 141.508 198.22 142.599 194.342C143.69 190.465 143.209 186.308 141.262 182.788L92.1248 93.8457C91.1596 92.1008 89.8629 90.5647 88.3088 89.3254C86.7547 88.086 84.9737 87.1676 83.0675 86.6226C81.1613 86.0777 79.1673 85.9168 77.1994 86.1493C75.2316 86.3818 73.3285 87.0031 71.5988 87.9776Z" fill="#E8928B"/>
<path d="M154.154 190.254L127.666 219.339" stroke="#284356" stroke-width="1.5" stroke-linecap="round" stroke-linejoin="round"/>
<path d="M122.496 209.999L160.952 202.534" stroke="#284356" stroke-width="1.5" stroke-linecap="round" stroke-linejoin="round"/>
<path d="M144.914 173.559L118.426 202.633" stroke="#284356" stroke-width="1.5" stroke-linecap="round" stroke-linejoin="round"/>
<path d="M113.256 193.293L151.712 185.839" stroke="#284356" stroke-width="1.5" stroke-linecap="round" stroke-linejoin="round"/>
<path d="M135.674 156.864L109.186 185.939" stroke="#284356" stroke-width="1.5" stroke-linecap="round" stroke-linejoin="round"/>
<path d="M104.016 176.599L142.472 169.133" stroke="#284356" stroke-width="1.5" stroke-linecap="round" stroke-linejoin="round"/>
<path d="M105.903 118.794L127.514 157.852L101.184 172.667L79.5734 133.609L105.903 118.794Z" fill="#FFD278"/>
<path d="M70.4001 222.168L172.788 222.013L172.634 123.863C172.634 123.863 167.673 127.601 165.517 127.668C163.053 127.757 159.434 123.885 156.97 123.885C154.506 123.885 150.887 127.69 148.423 127.701C145.959 127.712 142.274 123.952 139.799 123.918C137.137 123.918 133.012 127.757 130.35 127.723C127.688 127.69 124.146 123.963 121.649 123.941C119.152 123.918 114.994 127.823 112.365 127.757C110.033 127.701 106.722 124.052 104.39 123.974C101.684 123.885 97.4161 127.845 94.7101 127.779C92.2681 127.779 88.6821 123.963 86.2401 123.996C83.7981 124.029 80.6081 127.801 78.2651 127.812C75.9221 127.823 70.2461 124.029 70.2461 124.029L70.4001 222.168Z" fill="#1F62FB"/>
<path d="M97.6251 172.583C97.6251 177.076 98.9464 181.468 101.422 185.204C103.897 188.94 107.416 191.852 111.532 193.572C115.648 195.291 120.178 195.741 124.548 194.865C128.918 193.988 132.932 191.824 136.083 188.647C139.233 185.47 141.379 181.422 142.248 177.015C143.118 172.608 142.671 168.04 140.966 163.889C139.261 159.738 136.374 156.19 132.669 153.693C128.964 151.197 124.609 149.865 120.153 149.865C114.178 149.865 108.448 152.258 104.223 156.519C99.9986 160.779 97.6251 166.558 97.6251 172.583Z" fill="#FCFCFC" stroke="#010101" stroke-width="1.5" stroke-linecap="round" stroke-linejoin="round"/>
<path d="M109.318 172.583C109.316 174.738 109.947 176.845 111.133 178.638C112.319 180.431 114.005 181.829 115.979 182.655C117.952 183.481 120.124 183.698 122.22 183.279C124.317 182.86 126.242 181.824 127.754 180.301C129.266 178.778 130.296 176.837 130.714 174.723C131.131 172.61 130.918 170.419 130.101 168.428C129.283 166.437 127.899 164.735 126.122 163.537C124.346 162.34 122.257 161.701 120.12 161.701C117.257 161.701 114.511 162.847 112.486 164.887C110.46 166.928 109.321 169.696 109.318 172.583Z" fill="#FCFCFC" stroke="#010101" stroke-width="1.5" stroke-linecap="round" stroke-linejoin="round"/>
<path d="M152.801 150.331V160.436C152.801 161.545 152.713 162.954 149.039 162.954C145.365 162.954 145.079 161.69 145.079 160.514V150.331" stroke="#010101" stroke-width="1.5" stroke-linecap="round" stroke-linejoin="round"/>
<path d="M148.94 150.297V162.355" stroke="#010101" stroke-width="1.5" stroke-linecap="round" stroke-linejoin="round"/>
<path d="M148.973 163.409V201.236" stroke="#010101" stroke-width="1.5" stroke-linecap="round" stroke-linejoin="round"/>
<path d="M88.5389 150.331C88.5389 150.331 93.2139 155.555 92.4879 167.58C92.035 173.531 90.6848 179.378 88.4839 184.918L88.5389 150.331Z" fill="#010101" stroke="#010101" stroke-width="1.5" stroke-linecap="round" stroke-linejoin="round"/>
<path d="M88.5059 202.123V151.018" stroke="#010101" stroke-width="1.5" stroke-linecap="round" stroke-linejoin="round"/>
</g>
<defs>
<clipPath id="clip0_43_6118">
<rect width="319" height="223" fill="white" transform="matrix(-1 0 0 1 319 0)"/>
</clipPath>
</defs>
</svg>
