<?xml version="1.0" encoding="UTF-8"?>
<svg width="92px" height="92px" viewBox="0 0 92 92" version="1.1" xmlns="http://www.w3.org/2000/svg" xmlns:xlink="http://www.w3.org/1999/xlink">
    <!-- Generator: Sketch 52.5 (67469) - http://www.bohemiancoding.com/sketch -->
    <title>Group 65</title>
    <desc>Created with Sketch.</desc>
    <g id="For-Hospital-v3" stroke="none" stroke-width="1" fill="none" fill-rule="evenodd">
        <g id="Dash-board-log-in-screen-Copy-5" transform="translate(-920.000000, -249.000000)">
            <g id="Group-65" transform="translate(920.000000, 249.000000)">
                <ellipse id="Oval" fill="#B2D9FF" transform="translate(45.999649, 45.741224) rotate(-360.000000) translate(-45.999649, -45.741224) " cx="45.9996488" cy="45.7412238" rx="44.9541942" ry="44.7016426"></ellipse>
                <path d="M39.734109,44.5941637 C43.9108429,44.5941637 48.0875767,44.5941637 52.2639593,44.5941637 L52.3324448,45.4457716 L46.209144,54.6765583 L39.6313809,45.3546214 L39.7339334,44.5946876 L39.734109,44.5941637 Z" id="Path" fill="#B3B3B3" transform="translate(45.981913, 49.635361) rotate(-360.000000) translate(-45.981913, -49.635361) "></path>
                <polygon id="Path" fill="#F0BA7D" transform="translate(45.776720, 56.015261) rotate(-360.000000) translate(-45.776720, -56.015261) " points="39.8148867 42.2787402 39.7063636 47.4856492 30.8225728 52.3162582 30.8225728 70.0233108 45.7776857 70.0233108 60.730867 70.0233108 60.730867 52.3160836 52.4746838 47.2132464 52.021275 42.0072105 39.8150623 42.2785656 39.8148867 42.2785656"></polygon>
                <path d="M35.7097992,27.0945562 C35.7097992,27.0945562 35.2003729,25.9815465 33.8327713,26.5331621 C32.4648185,27.0840792 33.8942326,32.5838211 34.4170048,33.3510889 C34.9392502,34.1180075 35.7802163,33.6310002 36.0864691,33.6006168 C36.5219663,36.8792285 36.5607747,39.1389491 37.880612,40.5213932 C39.1307347,41.8303234 41.9927237,44.4979497 43.500457,45.4283099 C44.5215925,45.6427397 45.2833613,45.7686387 46,45.806356 C46.7162875,45.7686387 47.4787587,45.6423905 48.499543,45.4283099 C50.0071007,44.4984735 52.8696165,41.8303234 54.119388,40.5213932 C55.4388741,39.1389491 55.4780337,36.8797524 55.9135309,33.6006168 C56.2197837,33.6311748 57.0607498,34.1180075 57.5829952,33.3510889 C58.1055918,32.5838211 59.5351815,27.0839046 58.1672287,26.5331621 C56.7992759,25.9813719 56.2902008,27.0945562 56.2902008,27.0945562 C56.2902008,27.0945562 57.6421737,22.7757501 55.2390371,18.5246955 C53.5922257,15.6110336 49.8362383,14.0998967 46.0001756,13.9890148 C42.1641129,14.0998967 38.4081255,15.6110336 36.7613141,18.5246955 C34.3581776,22.7759247 35.7101504,27.0945562 35.7101504,27.0945562 L35.7097992,27.0945562 Z" id="Path" fill="#FED298" transform="translate(45.999983, 29.897685) rotate(-360.000000) translate(-45.999983, -29.897685) "></path>
                <path d="M35.3498116,49.0173909 L37.4772504,48.1841178 L39.1916692,46.6522015 L45.2450797,51.217567 L46.7526374,51.217567 L52.8079796,46.6467884 L56.6491348,49.0179147 L63.3240067,60.2999291 L58.0378088,88.8189268 C54.2059606,89.8757099 50.1691829,90.4428664 45.9987708,90.4428664 C42.5975028,90.4428664 39.2854416,90.0648203 36.1003418,89.3532553 L26.6256445,61.2013029 L35.3492848,49.0175655 L35.3498116,49.0173909 Z" id="Path" fill="#027BBE" transform="translate(44.974826, 68.544827) rotate(-360.000000) translate(-44.974826, -68.544827) "></path>
                <g id="Group" transform="translate(46.290238, 50.998126) rotate(-360.000000) translate(-46.290238, -50.998126) translate(37.219815, 44.519253)" fill="#008FF3">
                    <polygon id="Path" points="17.4880206 3.07169038 15.044144 0.0749107597 9.5335245 6.69848871 14.2635856 11.9247802"></polygon>
                    <polygon id="Path" points="0.0674318182 3.018956 2.51446928 0.0749107597 8.02543999 6.69848871 3.10748295 11.8709981"></polygon>
                </g>
                <path d="M37.2875984,47.5382089 L21.0892113,52.7761998 C20.4305218,52.9887088 20.0167995,53.5457376 19.8826383,54.2218552 L15.1193881,78.2243802 C18.3271408,81.2408915 21.9819805,83.7908259 25.9739792,85.7695875 L28.341995,78.0848611 C28.3695648,77.9966794 28.4538546,77.941675 28.5460465,77.9526759 C28.6378873,77.9635021 28.7077775,78.0366667 28.71287,78.1290392 L29.0547704,87.1546507 C34.284424,89.2736299 40.0045387,90.4428664 46.0003512,90.4428664 L46.0003512,87.4460868 L37.2879496,47.5383836 L37.2875984,47.5382089 Z" id="Path" fill="#FFFFFF" transform="translate(30.559870, 68.990538) rotate(-360.000000) translate(-30.559870, -68.990538) "></path>
                <g id="Group" transform="translate(53.695215, 69.515914) rotate(-360.000000) translate(-53.695215, -69.515914) translate(30.371271, 47.487745)" fill="#EEF3F7">
                    <polygon id="Path" points="6.91632706 0.050464358 5.06107404 0.617271645 0.145926669 8.95681238 6.35088317 9.15011357 2.54151225 11.3068101 15.6292555 39.9586914 6.91685387 0.0508135923"></polygon>
                    <path d="M24.3365646,0.103198739 L40.5398686,5.28845517 C41.1996117,5.49956731 41.6119292,6.05799298 41.7460904,6.7341106 L46.5095162,30.7369848 C43.3014123,33.7534962 39.646397,36.3036051 35.6542227,38.2825413 L33.2858556,30.5974657 C33.2586371,30.509284 33.1734693,30.4542796 33.0818042,30.4652805 C32.9899634,30.4761068 32.9207756,30.5496206 32.9153319,30.6416438 L32.5743095,39.6672554 C27.3446559,41.7862346 21.6245412,42.955471 15.6290799,42.955471 L15.6287287,42.955471 L15.6287287,39.9586914 L24.336389,0.10372259 L24.3365646,0.103198739 Z" id="Path"></path>
                </g>
                <polygon id="Path" fill="#FFFFFF" transform="translate(53.739382, 67.518690) rotate(-360.000000) translate(-53.739382, -67.518690) " points="54.7078359 47.5909433 55.7377516 47.9024603 61.4787631 56.4971167 55.2738066 56.6907672 59.0835288 58.8476383 46 87.446436 54.7076603 47.5914672 54.7076603 47.5911179 54.7078359 47.5911179"></polygon>
                <path d="M47.8359366,87.2588972 C47.2896335,87.2588972 46.846761,87.6982339 46.846761,88.2395471 C46.846761,88.7817334 47.2899847,89.2208955 47.8359366,89.2208955 C48.3818885,89.2208955 48.8251122,88.7815588 48.8251122,88.2395471 C48.8251122,87.6978847 48.3818885,87.2588972 47.8359366,87.2588972 Z" id="Path" fill="#D9DADA" transform="translate(47.835937, 88.239896) rotate(-360.000000) translate(-47.835937, -88.239896) "></path>
                <path d="M55.1097928,28.380437 L56.0629696,28.3472597 L56.3697493,27.265681 L57.267611,26.3747843 C57.8606246,21.9346193 58.0353503,15.0241453 53.6032887,15.2235581 C53.6032887,15.2235581 53.2036147,10.1848055 45.2092566,11.1724401 C37.2143716,12.160424 33.6022037,17.2924222 34.0326083,21.5740349 C34.4626618,25.8556475 34.2893409,26.3742605 34.2893409,26.3742605 L35.1872026,27.2655064 L35.322593,28.4958589 L36.1066635,28.4466169 C36.1066635,28.4466169 36.3525087,26.7998025 36.5985295,26.0754905 C36.8447259,25.3513532 36.7676358,23.8852675 36.7676358,23.8852675 C36.7676358,23.8852675 46.2105488,24.4835059 48.7624217,21.2557078 C50.3384648,19.2624529 53.9580082,15.8087002 54.1402848,20.5918133 C54.1943707,22.0102285 53.6640476,24.1361924 54.6788613,25.683475 C55.6940263,27.2309322 55.1094416,28.3800877 55.1094416,28.3800877 L55.1097928,28.3800877 L55.1097928,28.380437 Z" id="Path" fill="#666666" transform="translate(45.787069, 19.770002) rotate(-360.000000) translate(-45.787069, -19.770002) "></path>
                <polygon id="Path" fill="#FFFFFF" transform="translate(46.021511, 69.332089) rotate(-360.000000) translate(-46.021511, -69.332089) " points="46 87.4460868 48.5525753 75.7635006 46.817962 52.7349901 47.7630611 52.3338945 46.752813 51.2179163 45.2452553 51.2179163 44.2091935 52.3078766 45.1816868 52.7351647 43.4904476 75.9499917 46.0001756 87.4462614"></polygon>
                <path d="M47.7479592,87.2588972 C47.2504739,87.2588972 46.8465854,87.6587705 46.8465854,88.1520639 C46.8465854,88.6458812 47.2502983,89.0461038 47.7479592,89.0461038 C48.2450932,89.0461038 48.6493329,88.6460559 48.6493329,88.1520639 C48.6493329,87.6589451 48.2450932,87.2588972 47.7479592,87.2588972 Z" id="Path" fill="#FFFFFF" transform="translate(47.747959, 88.152500) rotate(-360.000000) translate(-47.747959, -88.152500) "></path>
                <path d="M61.8736958,72.4695226 C60.119415,72.168308 58.9428702,70.5097942 59.2454354,68.7658927 C59.5483517,67.0218165 61.2162356,65.8510085 62.9699897,66.1520485 C64.7242706,66.4532631 65.9008153,68.1121261 65.5982502,69.8565515 C65.2953338,71.600453 63.6274499,72.7709118 61.8733446,72.4696972 L61.8736958,72.4695226 Z" id="Path" fill="#FEFEFE" transform="translate(62.421843, 69.310903) rotate(-360.000000) translate(-62.421843, -69.310903) "></path>
                <path d="M61.9054801,72.2854761 C60.2534006,72.0017232 59.1453413,70.4406458 59.4306973,68.7973238 C59.7160533,67.154351 61.2864771,66.0523421 62.9389078,66.3357457 C64.5909874,66.6194986 65.6990467,68.1814491 65.4136907,69.8242473 C65.1283347,71.4675693 63.5579109,72.5688797 61.9054801,72.2851269 L61.9054801,72.2854761 Z" id="Path" fill="#008FF3" transform="translate(62.422194, 69.310497) rotate(-360.000000) translate(-62.422194, -69.310497) "></path>
                <path d="M62.1362234,70.9571634 C61.2223817,70.8005318 60.6091737,69.935653 60.7666902,69.0267707 C60.9242067,68.1177138 61.7939718,67.5082999 62.7076378,67.6649315 C63.6218306,67.8219124 64.2350387,68.6855688 64.077171,69.594975 C63.9196545,70.5036826 63.0502406,71.1134457 62.1362234,70.9568142 L62.1362234,70.9571634 Z" id="Path" fill="#EBECEC" transform="translate(62.421980, 69.310868) rotate(-360.000000) translate(-62.421980, -69.310868) "></path>
                <polygon id="Path" fill="#FEFEFE" transform="translate(62.901241, 66.764605) rotate(-360.000000) translate(-62.901241, -66.764605) " points="62.3337775 67.8440887 63.0718398 67.9708608 63.4687042 65.6851222 62.7306419 65.5583502"></polygon>
                <path d="M37.6131676,73.1035575 L38.9962223,72.8306308 C39.5839679,72.7143358 40.0705657,72.3705146 40.3812086,71.9088269 C40.6909735,71.4471391 40.8256616,70.8686325 40.7087095,70.2840143 L39.0820925,62.1351555 C38.4680064,59.0601473 36.0488899,57.4920853 33.2845366,57.1444225 C32.2252951,57.0111896 31.1147773,57.0597332 30.0388535,57.2715438 C28.9620517,57.4833544 27.9182633,57.859829 26.9909002,58.3849028 C24.575647,59.7528536 22.9479764,62.1178684 23.5627649,65.1977657 L25.1893819,73.3469738 C25.306334,73.9314174 25.6528001,74.4149323 26.116745,74.72383 L26.1179743,74.7234808 C26.5822704,75.0323786 27.163343,75.1654368 27.7510886,75.049491 L29.1334409,74.7765644 L29.0203521,74.2097571 L27.6376486,74.4826838 C27.2067172,74.5677223 26.7798246,74.4695875 26.4396802,74.2439821 L26.4400314,74.2436329 C26.0997115,74.0169798 25.8454373,73.6623324 25.7597427,73.2341711 L24.1331257,65.0849631 C23.5752328,62.2902155 25.0666349,60.1361383 27.2766074,58.8853556 C28.1500602,58.3903159 29.1350213,58.0353193 30.1517667,57.8346841 C31.1685121,57.6343983 32.2154613,57.5891724 33.2132415,57.7145475 C35.7435151,58.0325254 37.9561216,59.4574014 38.5126097,62.2467358 L40.1395779,70.3959438 C40.2247457,70.8241051 40.1260565,71.2482502 39.8988253,71.5871821 C39.6708917,71.9252409 39.3142406,72.1780865 38.8831335,72.2627759 L37.5000788,72.5357025 L37.6131676,73.1025098 L37.6131676,73.1033828 L37.6131676,73.1035575 Z" id="Path" fill="#008FF3" transform="translate(32.091411, 66.080601) rotate(-360.000000) translate(-32.091411, -66.080601) "></path>
                <path d="M39.5209261,63.3428077 L39.2724469,62.0981366 C38.6397468,58.9277875 36.1507401,57.3118804 33.3087699,56.9540898 C32.2289828,56.8185869 31.098095,56.8671305 30.0019767,57.0834811 C28.9058585,57.2991333 27.8418757,57.6832911 26.8969522,58.2179688 C24.4128624,59.6246846 22.7397104,62.0598955 23.3736397,65.2358323 L23.6224702,66.4805034 L24.5717837,66.2926153 L24.3233045,65.0479442 C23.784728,62.3487122 25.2308244,60.2646565 27.3719602,59.0522896 C28.2278526,58.5679016 29.1929705,58.2202388 30.1898727,58.0236199 C31.1864237,57.8268264 32.2128272,57.7826482 33.190413,57.9054041 C35.6420162,58.2134288 37.7854348,59.5904596 38.3236602,62.2851516 L38.5721394,63.5298227 L39.5218042,63.3422838 L39.5209261,63.3428077 Z" id="Path" fill="#4D4D4D" transform="translate(31.380319, 61.679470) rotate(-360.000000) translate(-31.380319, -61.679470) "></path>
                <g id="Group" transform="translate(33.568202, 74.052425) rotate(-360.000000) translate(-33.568202, -74.052425) translate(27.737216, 72.108764)" fill="#000000">
                    <path d="M0.299228693,3.00952668 L1.03922266,2.86337212 C1.22501136,3.07064268 1.51247461,3.17698453 1.80538157,3.11936087 C2.24562003,3.03240152 2.53167844,2.60738337 2.44422781,2.16926892 C2.35712837,1.73185295 1.92935778,1.4474016 1.48911932,1.53436095 C1.19550994,1.59198461 0.971088423,1.79995364 0.879423295,2.06187937 L0.139956143,2.2076847 L0.299755504,3.00917744 L0.299228693,3.00952668 Z" id="Path"></path>
                    <path d="M10.4638729,1.00335018 L9.72475692,1.14950474 C9.63291619,1.41125585 9.40849467,1.61887565 9.11541211,1.67702316 C8.67517365,1.76363327 8.24775426,1.47953116 8.16030362,1.04141672 C8.07320419,0.604000741 8.3589114,0.17863335 8.79879865,0.092023241 C9.09188121,0.0343995796 9.37969567,0.141265279 9.56460636,0.348011991 L10.3040735,0.201857432 L10.4638729,1.00335018 Z" id="Path"></path>
                </g>
                <path d="M30.4516978,57.0099673 L30.1695027,55.5962668 L29.6084489,55.7071487 L29.0480975,55.8176814 L29.3334535,57.2453512 C29.5471632,57.1833622 29.7635069,57.1306278 29.9819579,57.0874973 C30.1377184,57.0565901 30.2940057,57.0312706 30.4516978,57.0099673 Z" id="Path" fill="#666666" transform="translate(29.749898, 56.420809) rotate(-360.000000) translate(-29.749898, -56.420809) "></path>
                <g id="Group" transform="translate(33.326049, 74.227043) rotate(-360.000000) translate(-33.326049, -74.227043) translate(28.790838, 72.283381)" fill="#0F7986">
                    <path d="M0.450599077,3.00411354 C0.583706676,2.96569777 0.670279297,2.77617995 0.643763139,2.58282055 C0.617422585,2.38843674 0.488529474,2.26192079 0.354895064,2.30033656 C0.221611861,2.33875233 0.135214844,2.52775794 0.161731001,2.72162955 C0.188247159,2.91550116 0.317315874,3.04252932 0.450599077,3.00334523 L0.450599077,3.00411354 Z" id="Path"></path>
                    <path d="M7.76501971,0.882538387 C7.8979517,0.844122612 7.98417312,0.655117003 7.95783256,0.461757606 C7.93149201,0.266861578 7.8025989,0.140857839 7.66896449,0.179273613 C7.53568129,0.217689387 7.44928427,0.406694996 7.47580043,0.601078814 C7.50178977,0.795206527 7.6313853,0.921210266 7.76501971,0.882538387 Z" id="Path"></path>
                </g>
                <path d="M62.0464899,70.9417971 C61.1819929,70.7935471 60.6023251,69.9761642 60.751237,69.1160001 C60.9003246,68.2567091 61.7217987,67.6799486 62.5864712,67.8285478 C63.4509682,67.9767978 64.0309872,68.7941807 63.8817241,69.6534717 C63.7322853,70.513112 62.9102844,71.0898724 62.0461387,70.9417971 L62.0464899,70.9417971 Z" id="Path" fill="#FEFEFE" transform="translate(62.316525, 69.385098) rotate(-360.000000) translate(-62.316525, -69.385098) "></path>
                <g id="Group" transform="translate(46.091282, 45.709469) rotate(-360.000000) translate(-46.091282, -45.709469) translate(0.739169, 0.357356)">
                    <path d="M36.5563315,47.6048234 C36.5315714,47.6051726 27.8007314,47.6771149 29.2754512,55.2726119 L28.4634597,55.4269735 C26.8010195,46.8640974 36.5191035,46.7851704 36.5466733,46.7848212 L36.5563315,47.6048234 Z" id="Path" fill="#4D4D4D"></path>
                    <path d="M53.9783251,46.8235862 C55.4028223,46.8618274 58.1562882,47.2479059 60.2758248,49.8114604 C62.34988,52.320185 63.8038786,56.9274587 62.7167161,65.3747382 L61.8982273,65.2718887 C62.9506202,57.0959642 61.5907452,52.6938657 59.6390858,50.3326926 C57.7322053,48.0258253 55.2458326,47.6781626 53.9595355,47.643763 L53.9788519,46.8235862 L53.9783251,46.8235862 Z" id="Path" fill="#4D4D4D"></path>
                    <ellipse id="Oval-Copy-8" stroke="#0884FF" stroke-width="1.56" cx="45.2604798" cy="45.3838678" rx="44.9541942" ry="44.7016426"></ellipse>
                </g>
            </g>
        </g>
    </g>
</svg>