<?xml version="1.0" encoding="UTF-8"?>
<svg width="30px" height="40px" viewBox="0 0 30 40" version="1.1" xmlns="http://www.w3.org/2000/svg" xmlns:xlink="http://www.w3.org/1999/xlink">
    <!-- Generator: Sketch 57.1 (83088) - https://sketch.com -->
    <title>pdf copy</title>
    <desc>Created with Sketch.</desc>
    <g id="sanar-app" stroke="none" stroke-width="1" fill="none" fill-rule="evenodd">
        <g id="09_Home-visit_doctor_My-appointments-completed" transform="translate(-53.000000, -341.000000)" fill="#FF2C44" fill-rule="nonzero">
            <g id="Group-66" transform="translate(15.000000, 308.000000)">
                <g id="Group-45">
                    <g id="pdf-copy" transform="translate(38.000000, 33.000000)">
                        <path d="M29.7558594,8.5775 L21.4225,0.244140625 C21.26625,0.087890625 21.0546875,0 20.8332813,0 L3.33328125,0 C1.49492188,0 0,1.49492188 0,3.33335938 L0,36.6667187 C0,38.5050781 1.49492188,40 3.33335938,40 L26.6667187,40 C28.5050781,40 30,38.5050781 30,36.6666406 L30,9.16664063 C30,8.9453125 29.9121094,8.73375 29.7558594,8.5775 Z M21.6666406,2.84507813 L27.1549219,8.33335938 L23.3332813,8.33335938 C22.4145313,8.33335938 21.6666406,7.58546875 21.6666406,6.66671875 L21.6666406,2.84507813 L21.6666406,2.84507813 Z M28.3333594,36.6666406 C28.3333594,37.5853906 27.5854687,38.3332812 26.6667188,38.3332812 L3.33335937,38.3332812 C2.41460937,38.3332812 1.66671875,37.5853906 1.66671875,36.6666406 L1.66671875,3.33335938 C1.66671875,2.41460938 2.41460937,1.66671875 3.33335937,1.66671875 L20,1.66671875 L20,6.66671875 C20,8.50507813 21.4949219,10 23.3333594,10 L28.3333594,10 L28.3333594,36.6666406 Z" id="Shape"></path>
                        <path d="M19.2488281,24.4636719 C18.4773437,23.8565625 17.7441406,23.2324219 17.2558594,22.7441406 C16.6210938,22.109375 16.0554687,21.4941406 15.5639844,20.9082031 C16.330625,18.5392187 16.6667188,17.3177344 16.6667188,16.6666406 C16.6667188,13.9005469 15.6673438,13.3332813 14.1667188,13.3332813 C13.0265625,13.3332813 11.6667188,13.9257031 11.6667188,16.7464062 C11.6667188,17.9899219 12.3478906,19.4995313 13.6979688,21.2540625 C13.3675781,22.2623437 12.979375,23.4253125 12.5432031,24.7363281 C12.3332031,25.3653906 12.1053906,25.9480469 11.8644531,26.4867969 C11.6683594,26.5739063 11.4778906,26.6625781 11.2939844,26.7545312 C10.6315625,27.0857812 10.0025,27.3835938 9.41898438,27.6603125 C6.7578125,28.9200781 5,29.7534375 5,31.3989063 C5,32.5935937 6.29804688,33.3332812 7.5,33.3332812 C9.04945312,33.3332812 11.3891406,31.26375 13.098125,27.7774219 C14.8721875,27.0775781 17.0776563,26.5591406 18.8183594,26.2344531 C20.2132031,27.3070313 21.75375,28.3332812 22.5,28.3332812 C24.56625,28.3332812 25,27.1385938 25,26.1367969 C25,24.1665625 22.7489844,24.1665625 21.6666406,24.1665625 C21.3305469,24.1666406 20.4289063,24.2659375 19.2488281,24.4636719 Z M7.5,31.6666406 C7.02390625,31.6666406 6.70164063,31.4420313 6.66664063,31.3989063 C6.66664063,30.8080469 8.42851562,29.973125 10.1326563,29.1658594 C10.2408594,29.1146094 10.3507813,29.0632813 10.4622656,29.0103906 C9.210625,30.8252344 7.9728125,31.6666406 7.5,31.6666406 Z M13.3333594,16.7464063 C13.3333594,15 13.8753906,15 14.1667188,15 C14.7559375,15 15.0000781,15 15.0000781,16.6666406 C15.0000781,17.0182031 14.7657031,17.8971094 14.3367969,19.2692188 C13.6824219,18.2617188 13.3333594,17.3982813 13.3333594,16.7464063 Z M13.9721875,25.703125 C14.0242969,25.5582813 14.0747656,25.4117969 14.1235937,25.2636719 C14.4328125,24.3359375 14.7111719,23.5025781 14.959375,22.7522656 C15.3052344,23.133125 15.6779687,23.5229688 16.0775781,23.9225 C16.2338281,24.07875 16.6211719,24.4303125 17.1371875,24.8705469 C16.11,25.094375 15.0171094,25.371875 13.9721875,25.703125 Z M23.3333594,26.136875 C23.3333594,26.51125 23.3333594,26.6666406 22.5602344,26.6715625 C22.3332031,26.6227344 21.8082812,26.3135156 21.1604687,25.8724219 C21.395625,25.8464063 21.5689844,25.8333594 21.6666406,25.8333594 C22.8979687,25.8333594 23.2471094,25.95375 23.3333594,26.136875 Z" id="Shape"></path>
                    </g>
                </g>
            </g>
        </g>
    </g>
</svg>