<?xml version="1.0" encoding="UTF-8"?>
<svg width="63px" height="63px" viewBox="0 0 63 63" version="1.1" xmlns="http://www.w3.org/2000/svg" xmlns:xlink="http://www.w3.org/1999/xlink">
    <!-- Generator: Sketch 52.5 (67469) - http://www.bohemiancoding.com/sketch -->
    <title>Group 7</title>
    <desc>Created with Sketch.</desc>
    <defs>
        <circle id="path-1" cx="21.5" cy="21.5" r="21.5"></circle>
        <filter x="-34.9%" y="-34.9%" width="169.8%" height="169.8%" filterUnits="objectBoundingBox" id="filter-2">
            <feOffset dx="0" dy="0" in="SourceAlpha" result="shadowOffsetOuter1"></feOffset>
            <feGaussianBlur stdDeviation="5" in="shadowOffsetOuter1" result="shadowBlurOuter1"></feGaussianBlur>
            <feColorMatrix values="0 0 0 0 0.6   0 0 0 0 0.588235294   0 0 0 0 0.980392157  0 0 0 0.245386096 0" type="matrix" in="shadowBlurOuter1"></feColorMatrix>
        </filter>
    </defs>
    <g id="For-Hospital-v4" stroke="none" stroke-width="1" fill="none" fill-rule="evenodd">
        <g id="05-sanar-emplyees-doctor-edit" transform="translate(-431.000000, -198.000000)">
            <g id="Group-6" transform="translate(441.000000, 208.000000)">
                <g id="Group-7">
                    <g id="Oval">
                        <use fill="black" fill-opacity="1" filter="url(#filter-2)" xlink:href="#path-1"></use>
                        <use fill="#FFFFFF" fill-rule="evenodd" xlink:href="#path-1"></use>
                    </g>
                    <path d="M30.9170754,26.8001865 L33.5972478,26.8001865 C34.0744218,26.8001865 34.4612478,27.1870125 34.4612478,27.6641865 C34.4612478,28.1413605 34.0744218,28.5281865 33.5972478,28.5281865 L30.9170754,28.5281865 L30.9170754,30.9800085 C30.9170754,31.4571825 30.5302494,31.8440085 30.0530754,31.8440085 C29.5759014,31.8440085 29.1890754,31.4571825 29.1890754,30.9800085 L29.1890754,28.5281865 L26.2777778,28.5281865 C25.8006038,28.5281865 25.4137778,28.1413605 25.4137778,27.6641865 C25.4137778,27.1870125 25.8006038,26.8001865 26.2777778,26.8001865 L29.1890754,26.8001865 L29.1890754,23.8888889 C29.1890754,23.4117149 29.5759014,23.0248889 30.0530754,23.0248889 C30.5302494,23.0248889 30.9170754,23.4117149 30.9170754,23.8888889 L30.9170754,26.8001865 Z M24.2128206,29.6782668 C24.6899946,29.6782668 25.0768206,30.0650928 25.0768206,30.5422668 C25.0768206,31.0194409 24.6899946,31.4062668 24.2128206,31.4062668 L13.554176,31.4062668 L13.371609,31.386758 C11.1189467,30.8997645 9.88621767,29.5001613 9.88621767,27.3587375 C9.88621767,23.6791743 9.88621767,23.6791743 9.88626231,15.5995544 C9.86445576,13.4543314 11.2132588,12.2748889 13.554176,12.2748889 C18.1085248,12.2748889 18.1085248,12.2748889 29.5869245,12.2751737 C31.7004555,12.3294595 33.0376597,13.4433957 33.3610869,15.4535207 L33.3717738,15.5686099 C33.4180375,17.3716115 33.4230385,19.7398897 33.3869308,22.6754518 C33.381062,23.1525897 32.9895076,23.5346288 32.5123697,23.52876 C32.0352318,23.5228911 31.6531927,23.1313368 31.6590615,22.6541988 C31.694516,19.7717461 31.6900719,17.4442377 31.6458781,15.6736137 C31.4468698,14.5404766 30.8216026,14.0354517 29.5647401,14.0028889 L13.554176,14.0028889 C12.1232504,14.0028889 11.6027479,14.4580353 11.6142177,15.5907722 L11.6142177,27.3587375 C11.6142177,28.6282025 12.2258926,29.3477569 13.6496748,29.6782668 L24.2128206,29.6782668 Z M21.9479167,26.8431667 C19.2443447,26.8431667 17.0526667,24.6514886 17.0526667,21.9479167 C17.0526667,19.2443447 19.2443447,17.0526667 21.9479167,17.0526667 C24.6514886,17.0526667 26.8431667,19.2443447 26.8431667,21.9479167 C26.8431667,24.6514886 24.6514886,26.8431667 21.9479167,26.8431667 Z M21.9479167,25.1151667 C23.6971405,25.1151667 25.1151667,23.6971405 25.1151667,21.9479167 C25.1151667,20.1986928 23.6971405,18.7806667 21.9479167,18.7806667 C20.1986928,18.7806667 18.7806667,20.1986928 18.7806667,21.9479167 C18.7806667,23.6971405 20.1986928,25.1151667 21.9479167,25.1151667 Z" id="Combined-Shape" fill="#88909C" fill-rule="nonzero"></path>
                </g>
            </g>
        </g>
    </g>
</svg>