<?xml version="1.0" encoding="UTF-8"?>
<svg width="43px" height="43px" viewBox="0 0 43 43" version="1.1" xmlns="http://www.w3.org/2000/svg" xmlns:xlink="http://www.w3.org/1999/xlink">
    <!-- Generator: Sketch 53.1 (72631) - https://sketchapp.com -->
    <title>user</title>
    <desc>Created with Sketch.</desc>
    <g id="For-Hospital-v5" stroke="none" stroke-width="1" fill="none" fill-rule="evenodd">
        <g id="user" fill-rule="nonzero">
            <path d="M15.1011132,33.712 L8.686,37.2112264 C8.30954717,37.4164906 7.97122642,37.6688113 7.65643396,37.9438491 C11.3966226,41.0974528 16.2247925,43 21.5,43 C26.7362642,43 31.5336038,41.1258491 35.2632453,38.0152453 C34.9192453,37.7247925 34.5460377,37.4635472 34.1322642,37.2574717 L27.2628113,33.8231509 C26.3752264,33.3793585 25.8146038,32.4723019 25.8146038,31.4800566 L25.8146038,28.7848491 C26.0076981,28.5649811 26.2283774,28.2826415 26.4644717,27.9491887 C27.4007358,26.6267358 28.1090189,25.1720377 28.5998679,23.6459434 C29.4809623,23.3741509 30.1300189,22.5603962 30.1300189,21.5933019 L30.1300189,18.7163585 C30.1300189,18.0835283 29.8484906,17.5180377 29.4111887,17.1221132 L29.4111887,12.963283 C29.4111887,12.963283 30.2655094,6.49137736 21.5008113,6.49137736 C12.7361132,6.49137736 13.590434,12.963283 13.590434,12.963283 L13.590434,17.1221132 C13.1523208,17.5180377 12.8716038,18.0835283 12.8716038,18.7163585 L12.8716038,21.5933019 C12.8716038,22.3510755 13.2699623,23.0179811 13.866283,23.4033585 C14.5851132,26.5326226 16.4673774,28.7848491 16.4673774,28.7848491 L16.4673774,31.4135283 C16.466566,32.3708868 15.9424528,33.2527925 15.1011132,33.712 Z" id="Path" fill="#E7ECED"></path>
            <path d="M21.8675283,0.00324528302 C9.9954717,-0.199584906 0.206075472,9.26041509 0.00324528302,21.1324717 C-0.111962264,27.864 2.88830189,33.9140189 7.66535849,37.9373585 C7.97771698,37.6647547 8.31279245,37.4148679 8.68518868,37.2120377 L15.1003019,33.7128113 C15.9416415,33.2536038 16.4657547,32.3716981 16.4657547,31.412717 L16.4657547,28.7840377 C16.4657547,28.7840377 14.5826792,26.5318113 13.8646604,23.4025472 C13.2691509,23.0171698 12.8699811,22.3510755 12.8699811,21.5924906 L12.8699811,18.7155472 C12.8699811,18.082717 13.1515094,17.5172264 13.5888113,17.1213019 L13.5888113,12.9624717 C13.5888113,12.9624717 12.7344906,6.49056604 21.4991887,6.49056604 C30.2638868,6.49056604 29.409566,12.9624717 29.409566,12.9624717 L29.409566,17.1213019 C29.8476792,17.5172264 30.1283962,18.082717 30.1283962,18.7155472 L30.1283962,21.5924906 C30.1283962,22.5595849 29.4793396,23.3733396 28.5982453,23.6451321 C28.1073962,25.1712264 27.3991132,26.6259245 26.4628491,27.9483774 C26.2267547,28.2818302 26.0060755,28.5641698 25.8129811,28.7840377 L25.8129811,31.4792453 C25.8129811,32.4714906 26.3736038,33.3793585 27.2611887,33.8223396 L34.1306415,37.2566604 C34.5427925,37.4627358 34.9151887,37.7231698 35.2583774,38.0128113 C39.8910189,34.1493019 42.8839811,28.3726981 42.9951321,21.8675283 C43.1995849,9.9954717 33.7403962,0.206075472 21.8675283,0.00324528302 Z" id="Path" fill="#ABB3C5"></path>
        </g>
    </g>
</svg>