<svg width="236" height="254" viewBox="0 0 236 254" fill="none" xmlns="http://www.w3.org/2000/svg">
<path d="M153.268 73.9942C153.403 74.0995 153.52 74.2188 153.627 74.3536L152.812 73.2992C152.955 73.4915 153.068 73.6984 153.164 73.9176C152.989 73.5029 152.814 73.0878 152.638 72.6731C152.84 73.1617 152.951 73.6767 153.026 74.1984C152.964 73.7365 152.903 73.2751 152.84 72.8133C153.14 75.0609 152.871 77.3843 152.571 79.617L152.757 78.2318C152.271 81.793 151.475 85.2919 150.792 88.8172C150.523 90.2092 150.582 91.5748 151.318 92.8316C151.95 93.9123 153.189 94.9431 154.431 95.2258C155.764 95.5298 157.262 95.464 158.445 94.7004C159.536 93.9976 160.584 92.9073 160.84 91.5871C161.379 88.804 162 86.0387 162.464 83.2412C163.02 79.8992 163.675 76.314 163.273 72.9113C163.154 71.9031 163.063 70.8564 162.686 69.9023C162.218 68.7195 161.68 67.4369 160.636 66.6256C160.164 66.1175 159.605 65.7586 158.959 65.5486C158.339 65.2223 157.67 65.0726 156.952 65.0998C155.675 65.0998 154.148 65.6674 153.268 66.6256C152.357 67.6183 151.68 68.9218 151.742 70.3097C151.8 71.5887 152.207 73.169 153.268 73.9938L153.268 73.9942Z" fill="#545454"/>
<path d="M183.624 251.039L11.3215 200.888C4.48464 198.899 0.546942 191.732 2.53598 184.895L37.4213 65.0368C39.4103 58.1999 46.5775 54.2622 53.4143 56.2513L225.716 106.402C232.553 108.391 236.491 115.558 234.502 122.395L199.617 242.253C197.614 249.101 190.461 253.028 183.624 251.039Z" fill="#545454"/>
<path d="M158.709 146.707C173.214 131.112 214.012 115.475 225.001 111.443C223.872 110.65 222.605 110.02 221.214 109.615L51.9644 60.3555C45.1275 58.3664 37.9622 62.2919 35.9713 69.141L1.49663 187.573C0.604194 190.637 0.912256 193.766 2.12002 196.463C30.4456 189.838 143.995 162.527 158.71 146.708L158.709 146.707Z" fill="#919191"/>
<path d="M114.687 211.378C143.123 211.378 166.175 188.326 166.175 159.89C166.175 131.455 143.123 108.403 114.687 108.403C86.2518 108.403 63.2002 131.455 63.2002 159.89C63.2002 188.326 86.2518 211.378 114.687 211.378Z" fill="white"/>
<path d="M140.384 133.156C138.237 130.258 133.722 128.569 130.107 129.312C127.678 129.809 125.753 131.153 124.347 132.269C119.42 136.177 116.168 148.368 116.032 148.884C116.025 148.908 115.18 151.976 114.191 155.681L114.201 155.684L112.676 161.627H112.674L112.08 164.386C110.938 164.807 110.075 165.754 109.772 166.933C109.265 168.908 110.459 170.928 112.435 171.435C114.41 171.942 116.43 170.747 116.936 168.773C117.282 167.428 116.854 166.037 115.829 165.111L116.514 161.882H116.515L117.382 158.379L117.453 158.108C118.649 153.58 119.709 149.704 119.719 149.668C120.577 146.4 123.564 137.317 127.02 134.575C128.139 133.687 129.642 132.623 131.351 132.273C132.184 132.101 133.145 132.145 134.131 132.398C135.682 132.797 137.07 133.658 137.845 134.702C139.483 136.908 140.104 139.728 139.549 142.436C139.068 144.785 137.505 148.162 132.795 150.91C129.897 152.599 126.844 154.222 123.722 155.736C122.306 156.423 120.726 157.115 119.155 157.738L118.752 157.9C118.734 157.908 118.719 157.913 118.701 157.92L117.784 161.493C118.904 161.142 119.878 160.808 120.685 160.498C122.232 159.906 123.717 159.209 125.12 158.53C128.237 157.017 131.461 155.455 134.472 153.698C138.09 151.588 140.899 148.386 142.178 144.914C143.66 140.887 143.024 136.712 140.385 133.156H140.384ZM115.248 168.504C114.984 169.535 113.934 170.156 112.903 169.891C111.873 169.627 111.251 168.577 111.516 167.546C111.781 166.516 112.83 165.895 113.861 166.159C114.892 166.424 115.513 167.474 115.248 168.504Z" fill="url(#paint0_linear_517_1335)"/>
<mask id="mask0_517_1335" style="mask-type:luminance" maskUnits="userSpaceOnUse" x="109" y="129" width="34" height="43">
<path d="M140.384 133.156C138.237 130.258 133.722 128.569 130.107 129.312C127.678 129.809 125.753 131.153 124.347 132.269C119.42 136.177 116.168 148.368 116.032 148.884C116.025 148.908 115.18 151.976 114.191 155.681L114.201 155.684L112.676 161.627H112.674L112.08 164.386C110.938 164.807 110.075 165.754 109.772 166.933C109.265 168.908 110.459 170.928 112.435 171.435C114.41 171.942 116.43 170.747 116.936 168.773C117.282 167.428 116.854 166.037 115.829 165.111L116.514 161.882H116.515L117.382 158.379L117.453 158.108C118.649 153.58 119.709 149.704 119.719 149.668C120.577 146.4 123.564 137.317 127.02 134.575C128.139 133.687 129.642 132.623 131.351 132.273C132.184 132.101 133.145 132.145 134.131 132.398C135.682 132.797 137.07 133.658 137.845 134.702C139.483 136.908 140.104 139.728 139.549 142.436C139.068 144.785 137.505 148.162 132.795 150.91C129.897 152.599 126.844 154.222 123.722 155.736C122.306 156.423 120.726 157.115 119.155 157.738L118.752 157.9C118.734 157.908 118.719 157.913 118.701 157.92L117.784 161.493C118.904 161.142 119.878 160.808 120.685 160.498C122.232 159.906 123.717 159.209 125.12 158.53C128.237 157.017 131.461 155.455 134.472 153.698C138.09 151.588 140.899 148.386 142.178 144.914C143.66 140.887 143.024 136.712 140.385 133.156H140.384ZM115.248 168.504C114.984 169.535 113.934 170.156 112.903 169.891C111.873 169.627 111.251 168.577 111.516 167.546C111.781 166.516 112.83 165.895 113.861 166.159C114.892 166.424 115.513 167.474 115.248 168.504Z" fill="white"/>
</mask>
<g mask="url(#mask0_517_1335)">
<path d="M89.0081 165.417L135.475 177.348L147.406 130.881L100.939 118.95L89.0081 165.417Z" fill="url(#paint1_linear_517_1335)"/>
</g>
<path d="M112.8 156.086C105.928 147.824 104.326 144.273 104.326 144.273C102.3 140.938 101.756 136.643 102.856 133.093C103.676 130.446 105.336 128.486 107.658 127.422C108.677 126.955 110.11 126.855 111.588 127.15C113.915 127.603 115.422 129.125 116.779 132.357C117.156 133.256 118.25 133.75 119.219 133.454C119.708 133.306 120.088 132.986 120.291 132.554C120.484 132.145 120.49 131.683 120.309 131.254C119.053 128.264 117 124.727 112.218 123.763C109.879 123.297 107.61 123.489 105.829 124.306C102.558 125.803 100.252 128.454 99.1626 131.972C97.8079 136.343 98.5211 141.651 101.023 145.821L101.055 145.884C101.946 147.6 105.217 153.747 111.754 160.16L112.8 156.085L112.8 156.086Z" fill="url(#paint2_linear_517_1335)"/>
<path d="M138.169 168.58C138.432 168.647 138.677 168.635 138.906 168.542C139.061 168.733 139.271 168.863 139.534 168.93C139.838 169.008 140.108 168.981 140.348 168.848C140.585 168.715 140.742 168.507 140.815 168.224L141.13 166.995L141.12 166.993C141.14 166.81 141.031 166.634 140.847 166.587C140.663 166.54 140.483 166.641 140.412 166.811L140.406 166.809L140.397 166.842C140.395 166.847 140.391 166.851 140.39 166.857C140.389 166.862 140.39 166.868 140.389 166.874L140.099 167.991C140.046 168.193 139.919 168.268 139.717 168.217C139.505 168.162 139.421 168.048 139.465 167.877L139.742 166.799L139.736 166.798C139.777 166.601 139.659 166.405 139.462 166.354C139.26 166.302 139.053 166.424 139.001 166.626C139.001 166.627 139.001 166.629 139.001 166.63H139.001L138.722 167.686C138.678 167.857 138.554 167.918 138.351 167.866C138.149 167.814 138.074 167.687 138.125 167.484L138.34 166.65L138.334 166.648C138.336 166.641 138.341 166.636 138.343 166.629C138.395 166.425 138.272 166.216 138.067 166.164C137.863 166.111 137.655 166.234 137.602 166.439C137.601 166.441 137.602 166.444 137.602 166.446H137.601L137.371 167.339C137.299 167.621 137.337 167.88 137.488 168.112C137.638 168.346 137.866 168.5 138.169 168.578L138.169 168.58Z" fill="url(#paint3_linear_517_1335)"/>
<path d="M151.381 175.721C150.898 174.746 150.086 174.111 148.942 173.817C147.234 173.379 145.583 173.86 143.995 175.265L145.568 169.197C145.66 168.841 145.445 168.478 145.089 168.387C144.732 168.295 144.369 168.51 144.278 168.866L141.961 177.767L141.873 177.922L139.963 177.431L139.05 177.197L138.961 177.175C137.97 176.92 137.603 176.286 137.863 175.275L139.084 170.521L139.077 170.519C139.169 170.163 138.954 169.8 138.598 169.708C138.242 169.617 137.879 169.831 137.788 170.188L136.56 174.941C136.301 175.952 135.674 176.331 134.683 176.076L134.591 176.052L133.894 175.873C132.903 175.618 132.537 174.985 132.797 173.974L134.015 169.231C134.016 169.227 134.018 169.223 134.019 169.219C134.112 168.858 133.894 168.49 133.533 168.397C133.172 168.305 132.804 168.522 132.711 168.884L131.507 173.578C131.237 174.63 130.612 175.03 129.63 174.778L124.594 173.485C123.613 173.233 123.258 172.581 123.528 171.529L124.147 169.117L124.141 169.115C124.148 169.096 124.157 169.078 124.162 169.058C124.254 168.698 124.037 168.331 123.677 168.238C123.319 168.146 122.956 168.36 122.86 168.716H122.859L122.191 171.316C121.994 172.085 122.037 172.758 122.319 173.337C122.643 174.003 123.215 174.441 124.035 174.651L129.452 176.042C130.301 176.26 131.031 176.167 131.642 175.763C131.974 176.395 132.55 176.821 133.366 177.044V177.047L133.426 177.062L134.275 177.28L134.519 177.343C135.358 177.558 136.09 177.461 136.713 177.049C137.06 177.71 137.655 178.148 138.494 178.363L138.735 178.425L139.647 178.659L148.491 180.93C149.239 181.122 149.873 181.045 150.393 180.699C150.913 180.353 151.28 179.766 151.493 178.936L151.618 178.451C151.872 177.46 151.793 176.549 151.381 175.721ZM150.189 178.537C150.049 179.082 149.874 179.436 149.665 179.598C149.456 179.761 149.135 179.786 148.7 179.675L143.224 178.269L143.294 177.994C143.93 177.026 144.653 176.27 145.462 175.722C146.544 174.996 147.605 174.768 148.646 175.035C149.273 175.196 149.742 175.532 150.053 176.044C150.419 176.634 150.501 177.323 150.298 178.112L150.189 178.537Z" fill="url(#paint4_linear_517_1335)"/>
<path d="M125.968 176.765C125.553 176.658 125.131 176.908 125.024 177.323C124.918 177.738 125.168 178.16 125.582 178.266C125.997 178.373 126.42 178.123 126.526 177.708C126.632 177.294 126.382 176.871 125.968 176.765Z" fill="url(#paint5_linear_517_1335)"/>
<path d="M135.157 179.124C134.742 179.018 134.32 179.268 134.214 179.682C134.108 180.097 134.357 180.519 134.772 180.626C135.187 180.732 135.609 180.482 135.715 180.067C135.822 179.653 135.572 179.23 135.157 179.124Z" fill="url(#paint6_linear_517_1335)"/>
<path d="M137.083 179.619C136.668 179.512 136.246 179.762 136.14 180.177C136.033 180.591 136.283 181.014 136.698 181.12C137.113 181.227 137.535 180.977 137.641 180.562C137.748 180.147 137.498 179.725 137.083 179.619Z" fill="url(#paint7_linear_517_1335)"/>
<path d="M86.6255 155.87C85.4572 155.57 84.322 155.695 83.22 156.244C82.9705 156.315 82.8225 156.574 82.8892 156.826C82.9559 157.078 83.2127 157.228 83.4636 157.161V157.164C84.2635 156.835 85.0507 156.77 85.8256 156.969C87.0402 157.281 87.4916 158.043 87.1804 159.255L87.1577 159.342L86.2385 159.106C84.9314 158.771 83.8624 158.748 83.0299 159.037C82.1978 159.327 81.6692 159.908 81.4446 160.782C81.2473 161.552 81.3249 162.221 81.6783 162.79C82.0313 163.358 82.6129 163.747 83.4223 163.955C84.4845 164.227 85.4155 164.101 86.2158 163.576C86.1954 163.618 86.125 163.872 86.1133 163.919C86.0166 164.295 86.2412 164.678 86.6146 164.774C86.988 164.87 87.3691 164.642 87.4657 164.266L88.5701 159.965C89.1476 157.716 88.4997 156.351 86.6264 155.87L86.6255 155.87ZM86.4086 162.187C86.1917 162.504 85.8633 162.727 85.4232 162.857C84.9831 162.986 84.5434 162.994 84.1038 162.881C83.6642 162.768 83.3475 162.55 83.1533 162.227C82.9587 161.904 82.9187 161.521 83.0322 161.078C83.3076 160.006 84.3356 159.698 86.1164 160.156L86.8796 160.352L86.4082 162.187H86.4086ZM91.6761 165.185H91.6738C91.672 165.191 91.6725 165.199 91.6707 165.206C91.564 165.621 91.1439 165.872 90.732 165.766C90.32 165.661 90.0723 165.238 90.1789 164.823C90.1807 164.816 90.1843 164.809 90.1866 164.802H90.1843L91.888 158.058L91.8921 158.059C91.8948 158.045 91.8948 158.032 91.8984 158.018C92.005 157.603 92.4252 157.352 92.8371 157.458C93.2491 157.563 93.4968 157.986 93.3902 158.401C93.3866 158.414 93.3802 158.427 93.3757 158.44L93.3798 158.441L91.6761 165.185ZM94.1683 154.974C94.3026 155.195 94.3385 155.428 94.2754 155.673C94.2096 155.929 94.0676 156.122 93.8489 156.253C93.6307 156.383 93.3943 156.415 93.1398 156.35C92.8852 156.284 92.6965 156.143 92.574 155.925C92.451 155.707 92.4229 155.47 92.4887 155.214C92.5518 154.969 92.6924 154.781 92.9106 154.651C93.1289 154.521 93.3594 154.487 93.6025 154.549C93.8453 154.612 94.034 154.753 94.1683 154.974ZM102.477 161.319C102.028 160.284 101.219 159.617 100.051 159.317C99.0801 159.067 98.2444 159.226 97.5443 159.791L98.356 156.631L98.3506 156.629C98.3569 156.611 98.3655 156.594 98.3705 156.575C98.4771 156.16 98.2294 155.738 97.8174 155.632C97.4055 155.526 96.9853 155.777 96.8787 156.192L94.3697 165.965C94.2631 166.38 94.5108 166.802 94.9228 166.908C95.2976 167.004 95.8211 166.679 95.8738 166.255C96.0049 166.503 96.2222 166.749 96.5276 166.994C96.9264 167.313 97.3569 167.533 97.8193 167.652C98.7788 167.898 99.6781 167.782 100.517 167.301C101.553 166.722 102.256 165.71 102.627 164.265C102.908 163.17 102.858 162.188 102.477 161.32V161.319ZM99.7706 166.028C99.1872 166.474 98.5434 166.607 97.8379 166.426C97.41 166.316 97.0452 166.08 96.7444 165.717C96.4427 165.354 96.298 164.981 96.3102 164.599L97.1183 161.452C97.3592 161.042 97.7076 160.741 98.1641 160.547C98.6205 160.354 99.0683 160.313 99.5079 160.426C100.144 160.59 100.604 160.956 100.889 161.526C101.214 162.181 101.247 163.016 100.987 164.029C100.759 164.915 100.354 165.581 99.7706 166.028ZM82.8684 153.221L82.8665 153.228L79.3104 152.315L76.9806 161.389L76.9766 161.388C76.9734 161.403 76.9734 161.418 76.9698 161.432C76.8545 161.881 76.3999 162.152 75.9544 162.038C75.5088 161.923 75.2412 161.467 75.3564 161.018C75.36 161.003 75.3673 160.99 75.3718 160.976L75.3673 160.975L77.6971 151.901L74.4013 151.055L74.4027 151.05C74.3873 151.048 74.3719 151.047 74.356 151.044C73.9871 150.949 73.7657 150.571 73.861 150.199C73.9563 149.828 74.3328 149.603 74.7017 149.698C74.7171 149.702 74.7307 149.709 74.7457 149.714L74.7471 149.71L83.2123 151.883L83.2105 151.889C83.5408 152.009 83.7336 152.361 83.6437 152.711C83.5539 153.061 83.2154 153.277 82.8684 153.222V153.221Z" fill="url(#paint8_linear_517_1335)"/>
<path d="M140.384 133.156C138.237 130.258 133.722 128.569 130.107 129.312C127.678 129.809 125.753 131.153 124.347 132.269C119.42 136.177 116.168 148.368 116.032 148.884C116.025 148.908 115.18 151.976 114.191 155.681L114.201 155.684L112.676 161.627H112.674L112.08 164.386C110.938 164.807 110.075 165.754 109.772 166.933C109.265 168.908 110.459 170.928 112.435 171.435C114.41 171.942 116.43 170.747 116.936 168.773C117.282 167.428 116.854 166.037 115.829 165.111L116.514 161.882H116.515L117.382 158.379L117.453 158.108C118.649 153.58 119.709 149.704 119.719 149.668C120.577 146.4 123.564 137.317 127.02 134.575C128.139 133.687 129.642 132.623 131.351 132.273C132.184 132.101 133.145 132.145 134.131 132.398C135.682 132.797 137.07 133.658 137.845 134.702C139.483 136.908 140.104 139.728 139.549 142.436C139.068 144.785 137.505 148.162 132.795 150.91C129.897 152.599 126.844 154.222 123.722 155.736C122.306 156.423 120.726 157.115 119.155 157.738L118.752 157.9C118.734 157.908 118.719 157.913 118.701 157.92L117.784 161.493C118.904 161.142 119.878 160.808 120.685 160.498C122.232 159.906 123.717 159.209 125.12 158.53C128.237 157.017 131.461 155.455 134.472 153.698C138.09 151.588 140.899 148.386 142.178 144.914C143.66 140.887 143.024 136.712 140.385 133.156H140.384ZM115.248 168.504C114.984 169.535 113.934 170.156 112.903 169.891C111.873 169.627 111.251 168.577 111.516 167.546C111.781 166.516 112.83 165.895 113.861 166.159C114.892 166.424 115.513 167.474 115.248 168.504Z" fill="url(#paint9_linear_517_1335)"/>
<path d="M112.8 156.086C105.928 147.824 104.326 144.273 104.326 144.273C102.3 140.938 101.756 136.643 102.856 133.093C103.676 130.446 105.336 128.486 107.658 127.422C108.677 126.955 110.11 126.855 111.588 127.15C113.915 127.603 115.422 129.125 116.779 132.357C117.156 133.256 118.25 133.75 119.219 133.454C119.708 133.306 120.088 132.986 120.291 132.554C120.484 132.145 120.49 131.683 120.309 131.254C119.053 128.264 117 124.727 112.218 123.763C109.879 123.297 107.61 123.489 105.829 124.306C102.558 125.803 100.252 128.454 99.1626 131.972C97.8079 136.343 98.5211 141.651 101.023 145.821L101.055 145.884C101.946 147.6 105.217 153.747 111.754 160.16L112.8 156.085L112.8 156.086Z" fill="url(#paint10_linear_517_1335)"/>
<path d="M79.2147 177.173L78.996 178L78.8608 178.115L77.0615 177.64L77.2656 176.867C76.6263 177.094 76.0919 177.151 75.6613 177.037C75.1917 176.913 74.8619 176.671 74.6713 176.309C74.4803 175.949 74.449 175.529 74.5752 175.05C74.6999 174.579 74.9399 174.118 75.2961 173.669L78.1426 173.549L78.3699 172.689L79.2406 172.919L78.2252 176.76L79.1544 177.006L79.2152 177.173H79.2147ZM76.5751 171.679L76.1513 170.67L77.1613 170.134L77.5374 171.049L78.5473 170.512L78.962 171.519L77.9516 172.055L77.576 171.14L76.5751 171.679ZM76.0928 175.999C76.5234 176.113 76.9925 176.105 77.5011 175.975L77.904 174.451L75.6636 174.535C75.5819 174.684 75.5175 174.849 75.4699 175.03C75.3374 175.531 75.5452 175.854 76.0928 175.999Z" fill="#808080"/>
<path d="M82.81 178.1L82.5773 178.981L82.4507 179.064L82.2651 179.015C81.8804 178.913 81.5433 178.591 81.2538 178.049L80.7193 178.606L78.861 178.115L78.7643 177.926L78.9857 177.088L79.1541 177.005L80.7874 177.437L81.5523 174.542L82.4425 174.778L81.7465 177.411C81.9289 177.646 82.212 177.814 82.5968 177.916L82.7438 177.955L82.8096 178.1L82.81 178.1ZM79.6168 179.293L80.0324 180.335L79.022 180.871L78.6064 179.829L79.6168 179.293ZM81.0746 179.679L81.4897 180.72L80.4893 181.258L80.0642 180.215L81.0746 179.679V179.679Z" fill="#808080"/>
<path d="M86.5731 171.423L84.4162 179.583L82.4503 179.064L82.3745 178.916L82.6018 178.056L82.7438 177.955L83.8 178.234L85.6639 171.183L86.5735 171.423L86.5731 171.423Z" fill="#808080"/>
<path d="M89.1968 179.788L88.964 180.669L88.837 180.752L88.6805 180.711C88.3738 180.63 88.0816 180.39 87.8035 179.99L87.7458 180.208C87.2894 181.934 86.4678 182.641 85.2813 182.327C85.0268 182.26 84.799 182.134 84.5967 181.949L84.6906 180.961L84.7763 180.914C85.0077 181.068 85.2831 181.187 85.6025 181.272C85.8961 181.349 86.142 181.303 86.3403 181.135C86.5381 180.965 86.7005 180.642 86.8271 180.163L87.8711 176.213L88.7417 176.443L88.0398 179.098C88.2522 179.325 88.5666 179.494 88.9835 179.604L89.1305 179.643L89.1968 179.788ZM88.5543 174.973L88.1333 173.954L89.1537 173.42L89.5652 174.437L88.5548 174.973H88.5543Z" fill="#808080"/>
<path d="M92.7859 180.737L92.5532 181.618L92.4266 181.701L92.241 181.652C91.8563 181.55 91.5192 181.228 91.2297 180.686L90.6952 181.243L88.8369 180.752L88.7402 180.563L88.9616 179.725L89.13 179.642L90.7633 180.074L91.5282 177.179L92.4184 177.415L91.7224 180.048C91.9048 180.283 92.1879 180.451 92.5727 180.552L92.7197 180.591L92.7859 180.737ZM92.1516 176.168L91.7301 175.149L92.7505 174.616L93.162 175.633L92.1516 176.169V176.168Z" fill="#808080"/>
<path d="M96.9213 178.117C97.3515 178.23 97.6446 178.54 97.8002 179.047C97.9553 179.554 97.944 180.145 97.7662 180.819C97.6146 181.392 97.3492 181.896 96.969 182.331L96.0915 182.88L94.1601 181.159C93.8679 181.447 93.5989 181.633 93.353 181.72C93.1066 181.807 92.824 181.807 92.5045 181.723L92.4265 181.702L92.3721 181.513L92.5735 180.751L92.7201 180.592L92.8766 180.633C93.1116 180.695 93.3339 180.651 93.5444 180.501C93.755 180.351 94.049 180.051 94.4264 179.599C94.8951 179.041 95.332 178.628 95.7372 178.362C96.1423 178.097 96.5371 178.015 96.9218 178.117L96.9213 178.117ZM94.8125 180.434L96.3774 181.837C96.6165 181.513 96.7862 181.162 96.886 180.784C96.9989 180.356 97.0153 179.998 96.9345 179.709C96.8538 179.42 96.6931 179.244 96.4518 179.18C96.2562 179.128 96.0434 179.194 95.8139 179.377C95.5834 179.561 95.2894 179.87 94.931 180.303L94.8125 180.434Z" fill="#808080"/>
<path d="M105.417 184.098L105.198 184.925L105.063 185.041L103.264 184.565L103.468 183.792C102.829 184.019 102.294 184.076 101.864 183.962C101.394 183.838 101.064 183.596 100.874 183.235C100.683 182.874 100.651 182.454 100.777 181.976C100.902 181.504 101.142 181.044 101.498 180.595L104.345 180.474L104.572 179.615L105.443 179.845L104.428 183.686L105.357 183.931L105.418 184.098H105.417ZM102.777 178.605L102.354 177.596L103.364 177.059L103.74 177.974L104.75 177.438L105.164 178.444L104.154 178.98L103.778 178.066L102.777 178.605ZM102.295 182.924C102.726 183.038 103.195 183.03 103.703 182.9L104.106 181.377L101.866 181.46C101.784 181.609 101.72 181.774 101.672 181.956C101.54 182.456 101.748 182.779 102.295 182.924Z" fill="#808080"/>
<path d="M109.012 185.026L108.779 185.907L108.653 185.99L108.467 185.941C108.083 185.839 107.745 185.517 107.456 184.975L106.921 185.532L105.063 185.041L104.966 184.852L105.188 184.014L105.356 183.931L106.99 184.363L107.755 181.468L108.645 181.704L107.949 184.337C108.131 184.571 108.414 184.739 108.799 184.841L108.946 184.88L109.012 185.026L109.012 185.026ZM105.819 186.219L106.235 187.26L105.224 187.796L104.809 186.755L105.819 186.219ZM107.276 186.604L107.691 187.646L106.691 188.184L106.266 187.141L107.276 186.605V186.604Z" fill="#808080"/>
<path d="M112.601 185.974L112.369 186.855L112.242 186.938L112.056 186.889C111.672 186.788 111.335 186.466 111.045 185.923L110.511 186.481L108.652 185.989L108.556 185.801L108.777 184.963L108.945 184.879L110.579 185.311L111.344 182.417L112.234 182.652L111.538 185.286C111.72 185.52 112.003 185.688 112.388 185.79L112.535 185.829L112.601 185.975L112.601 185.974ZM110.387 187.345L110.812 188.388L109.802 188.925L109.377 187.881L110.387 187.345Z" fill="#808080"/>
<path d="M118.134 183.571C118.551 183.682 118.86 183.955 119.062 184.393C119.264 184.83 119.363 185.328 119.359 185.886C119.354 186.443 119.27 187.019 119.106 187.612L118.179 188.508L112.242 186.938L112.173 186.804L112.409 185.912L112.536 185.829L113.592 186.108L115.456 179.057L116.327 179.287L114.936 184.507C116.468 183.725 117.534 183.413 118.134 183.571H118.134ZM114.452 186.335L118.287 187.349C118.593 185.738 118.379 184.835 117.642 184.641C117.12 184.503 116.135 184.771 114.688 185.443L114.452 186.335Z" fill="#808080"/>
<path d="M127.061 189.819L126.843 190.646L126.707 190.762L124.908 190.286L125.112 189.514C124.473 189.74 123.938 189.797 123.508 189.683C123.038 189.559 122.708 189.317 122.518 188.956C122.327 188.595 122.296 188.176 122.422 187.697C122.546 187.226 122.786 186.765 123.143 186.316L125.989 186.196L126.216 185.336L127.087 185.566L126.072 189.407L127.001 189.652L127.062 189.819H127.061ZM124.422 184.326L123.998 183.317L125.008 182.781L125.384 183.695L126.394 183.159L126.809 184.165L125.798 184.701L125.422 183.787L124.422 184.326ZM123.939 188.645C124.37 188.759 124.839 188.751 125.348 188.622L125.751 187.098L123.51 187.181C123.428 187.33 123.364 187.495 123.316 187.677C123.184 188.177 123.392 188.5 123.939 188.645Z" fill="#808080"/>
<path d="M127.082 191.839L127.498 192.88L126.487 193.416L126.072 192.375L127.082 191.839ZM126.707 190.762L126.611 190.573L126.832 189.735L127.001 189.652L128.566 190.066L129.426 186.812L130.306 187.045L129.152 191.408L126.707 190.762ZM128.955 193.265L127.954 193.804L127.529 192.76L128.539 192.224L128.955 193.265Z" fill="#808080"/>
<path d="M133.021 191.382L132.793 192.242L132.664 192.336L130.747 191.829L132.904 183.668L133.784 183.901L131.92 190.952L132.957 191.226L133.021 191.382Z" fill="#808080"/>
<path d="M137.508 192.499L137.036 193.492L132.664 192.336L132.598 192.19L132.828 191.32L132.957 191.226L134.523 191.64C134.202 191.136 134.062 190.532 134.101 189.828C134.458 189.217 134.915 188.794 135.472 188.561C136.029 188.328 136.581 188.284 137.129 188.429C137.422 188.506 137.72 188.635 138.021 188.816L137.745 189.86L137.675 189.888C137.413 189.742 137.107 189.622 136.755 189.529C136.481 189.456 136.177 189.452 135.843 189.515C135.508 189.578 135.221 189.721 134.981 189.945C134.944 190.478 135.062 190.948 135.335 191.354C135.608 191.76 135.963 192.02 136.4 192.136L137.456 192.415L137.508 192.498L137.508 192.499Z" fill="#808080"/>
<path d="M141.205 190.309L140.21 194.074C139.754 195.801 138.932 196.507 137.746 196.194C137.491 196.127 137.263 196 137.061 195.815L137.155 194.827L137.241 194.78C137.472 194.934 137.747 195.054 138.067 195.138C138.36 195.216 138.606 195.17 138.805 195.001C139.002 194.832 139.165 194.508 139.291 194.03L140.335 190.079L141.206 190.309H141.205Z" fill="#808080"/>
<path opacity="0.15" d="M10.27 203.563L179.52 252.823C186.356 254.812 193.522 250.887 195.513 244.038L229.987 125.607C231.572 120.161 229.395 114.522 225.001 111.443C214.014 115.463 173.226 131.114 158.71 146.707C143.994 162.527 30.4457 189.838 2.11963 196.462C3.61821 199.789 6.49968 202.455 10.27 203.563Z" fill="#919191"/>
<path d="M144.097 87.8617C145.323 88.0654 153.015 87.3667 152.681 85.5809C152.348 83.7952 150.428 79.2127 150.255 78.319C150.082 77.4252 153.354 62.2742 153.354 62.2742C153.354 62.2742 157.612 70.5574 160.353 72.5823C163.094 74.6072 167.837 72.1699 166.94 71.3909C166.044 70.6119 163.434 61.1812 163.479 57.5679C163.517 54.5095 158.87 46.6314 157.797 40.2246C157.797 40.2246 152.444 31.9078 147.1 28.9682C143.533 27.0037 136.225 20.3393 131.772 16.1266L130.171 28.2927L129.17 30.9686C128.169 33.6446 114.643 51.8989 114.153 65.7818C113.662 79.6646 125.497 81.5452 125.497 81.5452C129.816 85.9702 134.078 83.5275 134.078 83.5275C134.63 85.1145 135.777 86.2442 137.112 87.0595C139.393 87.6117 143.135 87.702 144.097 87.8622L144.097 87.8617Z" fill="#F0C19F"/>
<path d="M157.797 40.2246C157.598 39.0423 157.515 37.9039 157.613 36.8699C158.254 30.1919 166.046 8.88414 166.046 8.88414L133.811 0.659859L131.77 16.1389C136.223 20.3515 143.531 27.016 147.098 28.9805C152.444 31.9082 157.797 40.2251 157.797 40.2251L157.797 40.2246Z" fill="#C88861"/>
<path d="M145.771 89.1656C159.158 93.6029 164.848 84.9462 164.848 84.9462L160.074 83.5597C155.324 82.9926 151.79 76.6711 151.79 76.6711L153.356 62.2624C153.356 62.2624 150.085 77.4134 150.258 78.3072C150.431 79.201 152.351 83.7834 152.684 85.5691C153.018 87.3549 145.326 88.0536 144.099 87.8499C143.137 87.6902 139.397 87.5877 137.128 87.0373C140.695 89.2242 145.771 89.1656 145.771 89.1656H145.771Z" fill="#C88861"/>
<path d="M129.718 34.3592C129.718 34.3592 117.555 51.0355 116.926 57.7154C116.286 64.3934 114.907 68.8974 116.504 72.1536C118.087 75.4198 119.881 71.7634 119.962 69.4164C120.043 67.0694 121.245 53.0699 122.774 49.3695C124.278 45.6772 129.718 34.3592 129.718 34.3592Z" fill="#F9D9C4"/>
<path d="M112.985 72.1699C113.186 71.4458 113.438 70.7426 113.726 70.0488C113.551 70.4635 113.376 70.8787 113.2 71.2933C113.724 70.0652 114.344 68.8837 115.005 67.7245C115.601 66.6783 116.197 65.6252 116.934 64.6697L116.12 65.7241C116.53 65.2096 116.976 64.7378 117.486 64.3217C117.135 64.593 116.783 64.8648 116.432 65.1361C116.855 64.809 117.302 64.5381 117.793 64.3254L116.548 64.8508C117.039 64.6588 117.536 64.5354 118.056 64.4574L116.671 64.6434C118.668 64.3948 120.754 64.6597 122.75 64.8185C124.887 64.9887 127.019 65.2178 129.144 65.4995L127.758 65.3135C131.055 65.7568 134.333 66.3307 137.583 67.0421C140.633 67.71 143.666 68.494 146.549 69.7099L145.305 69.1845C147.295 70.0402 149.158 71.135 150.988 72.2897C152.734 73.3913 154.455 74.5414 156.112 75.7746C157.127 76.53 158.964 76.6198 160.126 76.3C161.335 75.9674 162.644 75.0328 163.239 73.9058C163.878 72.6967 164.199 71.2321 163.765 69.8914L163.239 68.6469C162.776 67.8643 162.153 67.2409 161.371 66.7781C158.73 64.8122 155.942 62.9729 153.052 61.394C149.156 59.2657 144.882 57.9962 140.569 57.043C135.892 56.0099 131.152 55.2703 126.392 54.7454C124.188 54.5027 121.977 54.3203 119.763 54.1996C117.03 54.0503 114.232 54.2441 111.823 55.6887C109.363 57.1637 107.729 59.4998 106.317 61.9289C104.95 64.2818 103.666 66.7695 102.938 69.4009C102.577 70.7026 102.781 72.2502 103.463 73.4153C104.096 74.496 105.335 75.5269 106.576 75.8095C107.91 76.1135 109.407 76.0477 110.591 75.2841C111.734 74.5473 112.615 73.5061 112.985 72.1708L112.985 72.1699Z" fill="#545454"/>
<defs>
<linearGradient id="paint0_linear_517_1335" x1="114.743" y1="148.14" x2="139.65" y2="154.723" gradientUnits="userSpaceOnUse">
<stop stop-color="#28A5F5"/>
<stop offset="1" stop-color="#175CF7"/>
</linearGradient>
<linearGradient id="paint1_linear_517_1335" x1="94.851" y1="141.977" x2="141.559" y2="154.323" gradientUnits="userSpaceOnUse">
<stop stop-color="#28A5F5"/>
<stop offset="1" stop-color="#175CF7"/>
</linearGradient>
<linearGradient id="paint2_linear_517_1335" x1="97.5261" y1="138.126" x2="117.456" y2="143.394" gradientUnits="userSpaceOnUse">
<stop stop-color="#28A5F5"/>
<stop offset="1" stop-color="#175CF7"/>
</linearGradient>
<linearGradient id="paint3_linear_517_1335" x1="137.448" y1="167.036" x2="140.891" y2="167.946" gradientUnits="userSpaceOnUse">
<stop stop-color="#28A5F5"/>
<stop offset="1" stop-color="#175CF7"/>
</linearGradient>
<linearGradient id="paint4_linear_517_1335" x1="122.935" y1="168.442" x2="152.224" y2="176.184" gradientUnits="userSpaceOnUse">
<stop stop-color="#28A5F5"/>
<stop offset="1" stop-color="#175CF7"/>
</linearGradient>
<linearGradient id="paint5_linear_517_1335" x1="125.03" y1="177.315" x2="126.529" y2="177.711" gradientUnits="userSpaceOnUse">
<stop stop-color="#28A5F5"/>
<stop offset="1" stop-color="#175CF7"/>
</linearGradient>
<linearGradient id="paint6_linear_517_1335" x1="134.219" y1="179.674" x2="135.718" y2="180.071" gradientUnits="userSpaceOnUse">
<stop stop-color="#28A5F5"/>
<stop offset="1" stop-color="#175CF7"/>
</linearGradient>
<linearGradient id="paint7_linear_517_1335" x1="136.145" y1="180.169" x2="137.644" y2="180.565" gradientUnits="userSpaceOnUse">
<stop stop-color="#28A5F5"/>
<stop offset="1" stop-color="#175CF7"/>
</linearGradient>
<linearGradient id="paint8_linear_517_1335" x1="72.5823" y1="155.051" x2="102.945" y2="163.076" gradientUnits="userSpaceOnUse">
<stop stop-color="#28A5F5"/>
<stop offset="1" stop-color="#175CF7"/>
</linearGradient>
<linearGradient id="paint9_linear_517_1335" x1="114.743" y1="148.14" x2="139.65" y2="154.723" gradientUnits="userSpaceOnUse">
<stop stop-color="#28A5F5"/>
<stop offset="1" stop-color="#175CF7"/>
</linearGradient>
<linearGradient id="paint10_linear_517_1335" x1="97.5261" y1="138.126" x2="117.456" y2="143.394" gradientUnits="userSpaceOnUse">
<stop stop-color="#28A5F5"/>
<stop offset="1" stop-color="#175CF7"/>
</linearGradient>
</defs>
</svg>
