<?xml version="1.0" encoding="utf-8"?>
<svg viewBox="275.044 126.977 148.946 91.388" width="148.946" height="91.388" xmlns="http://www.w3.org/2000/svg" xmlns:xlink="http://www.w3.org/1999/xlink">
  <defs>
    <clipPath id="clip-path">
      <path class="cls-1" d="M163.88,88.12c-4.91-3.92-13.25-4.76-19-1.9a24.11,24.11,0,0,0-8.37,7.54c-6.55,8.76-6.6,30.72-6.6,31.65,0,0-.06,5.58-.08,12.25h0l.08,10.68h0l.23,4.91a6.43,6.43,0,1,0,10.12,5.22,6.37,6.37,0,0,0-3.49-5.67l-.28-5.74h0l-.1-6.28v-.48c0-8.15.06-15.15.06-15.21,0-5.88,1-22.49,5.57-28.64a18.75,18.75,0,0,1,6.27-5.8,10.8,10.8,0,0,1,4.73-1,11.8,11.8,0,0,1,7.27,2.23,16.89,16.89,0,0,1,6.31,12.25c.23,4.17-.9,10.54-7.6,17.26-4.12,4.13-8.54,8.22-13.12,12.16-2.07,1.78-4.42,3.65-6.79,5.4l-.61.45-.07.06,0,6.42c1.73-1.09,3.22-2.09,4.44-3,2.34-1.68,4.53-3.52,6.59-5.28,4.57-3.93,9.3-8,13.58-12.29,5.15-5.16,8.46-11.8,9.06-18.21A21.13,21.13,0,0,0,163.88,88.12ZM137.3,158.77a3.35,3.35,0,1,1-3.37-3.33A3.35,3.35,0,0,1,137.3,158.77Z" style="fill: rgb(255, 255, 255);"/>
    </clipPath>
    <linearGradient id="linear-gradient" x1="109.27" y1="138.56" x2="162.17" y2="116.21" gradientUnits="userSpaceOnUse" gradientTransform="matrix(1, 0, 0, 1, 218.95452, 44.889524)">
      <stop offset="0" stop-color="#0082c5"/>
      <stop offset="1" stop-color="#1396e8"/>
    </linearGradient>
    <linearGradient id="linear-gradient-2" x1="102.41" y1="122.33" x2="155.31" y2="99.98" gradientTransform="matrix(1, 0, 0, 1, 437.909034, 89.779046)" xlink:href="#linear-gradient"/>
  </defs>
  <path class="cls-1" d="M 382.835 133.01 C 377.925 129.09 369.585 128.25 363.835 131.11 C 360.488 132.927 357.62 135.51 355.465 138.65 C 348.915 147.41 348.865 169.37 348.865 170.3 C 348.865 170.3 348.805 175.88 348.785 182.55 L 348.865 193.23 L 349.095 198.14 C 345.041 200.98 345.583 207.144 350.07 209.234 C 354.35 211.228 359.248 208.082 359.215 203.36 C 359.21 200.964 357.862 198.773 355.725 197.69 L 355.445 191.95 L 355.345 185.67 L 355.345 185.19 C 355.345 177.04 355.405 170.04 355.405 169.98 C 355.405 164.1 356.405 147.49 360.975 141.34 C 362.59 138.95 364.736 136.965 367.245 135.54 C 368.725 134.853 370.343 134.511 371.975 134.54 C 374.578 134.46 377.134 135.244 379.245 136.77 C 382.994 139.77 385.288 144.225 385.555 149.02 C 385.785 153.19 384.655 159.56 377.955 166.28 C 373.835 170.41 369.415 174.5 364.835 178.44 C 362.765 180.22 360.415 182.09 358.045 183.84 L 357.435 184.29 L 357.365 184.35 L 357.365 190.77 C 359.095 189.68 360.585 188.68 361.805 187.77 C 364.145 186.09 366.335 184.25 368.395 182.49 C 372.965 178.56 377.695 174.49 381.975 170.2 C 387.125 165.04 390.435 158.4 391.035 151.99 C 391.795 144.666 388.688 137.476 382.835 133.01 Z M 356.255 203.66 C 356.27 206.238 353.488 207.867 351.247 206.591 C 349.006 205.314 348.987 202.091 351.212 200.788 C 351.72 200.491 352.297 200.333 352.885 200.33 C 354.735 200.318 356.244 201.809 356.255 203.66 Z" style="fill: rgb(255, 255, 255);" transform="matrix(1.0000000000000002, 0, 0, 1.0000000000000002, 7.105427357601002e-15, 0)"/>
  <g class="cls-2" style="clip-path: url('#clip-path');" transform="matrix(1.0000000000000002, 0, 0, 1.0000000000000002, 218.95452007515775, 44.889523890302264)">
    <rect class="cls-1" x="91.48" y="81.46" width="83.49" height="83.49" transform="translate(267.32 245.47) rotate(179.59)" style="fill: rgb(255, 255, 255);"/>
  </g>
  <path class="cls-1" d="M 346.615 183.89 C 331.375 173.05 327.105 167.79 327.105 167.79 C 322.212 163.03 319.514 156.454 319.655 149.63 C 319.701 145.091 321.733 140.801 325.215 137.89 C 327.106 136.518 329.369 135.751 331.705 135.69 C 335.825 135.41 339.035 137.3 342.705 142.14 C 343.836 143.501 345.796 143.825 347.305 142.9 C 348.034 142.461 348.542 141.735 348.705 140.9 C 348.845 140.121 348.645 139.32 348.155 138.7 C 344.715 134.23 339.685 129.19 331.215 129.7 C 327.408 129.833 323.736 131.143 320.705 133.45 C 315.92 137.361 313.088 143.171 312.955 149.35 C 312.828 157.799 316.188 165.927 322.245 171.82 L 322.325 171.91 C 329.382 179.566 337.599 186.066 346.675 191.17 L 346.615 183.89 Z" style="fill: rgb(255, 255, 255);" transform="matrix(1.0000000000000002, 0, 0, 1.0000000000000002, 7.105427357601002e-15, 0)"/>
  <path class="cls-3" d="M 394.855 193.59 C 395.296 193.599 395.729 193.462 396.085 193.2 C 396.439 193.456 396.867 193.59 397.305 193.58 C 397.799 193.593 398.279 193.413 398.645 193.08 C 398.985 192.751 399.167 192.292 399.145 191.82 L 399.145 189.61 C 399.096 189.292 398.826 189.056 398.505 189.05 C 398.181 189.053 397.91 189.297 397.875 189.62 L 397.875 189.68 C 397.875 189.68 397.875 189.68 397.875 189.68 C 397.875 189.68 397.875 189.68 397.875 189.68 L 397.875 191.68 C 397.915 191.995 397.65 192.265 397.335 192.23 C 396.945 192.23 396.755 192.08 396.755 191.77 L 396.755 189.89 C 396.738 189.538 396.446 189.264 396.095 189.27 C 395.73 189.27 395.435 189.565 395.435 189.93 L 395.435 191.89 C 395.435 192.19 395.265 192.35 394.895 192.35 C 394.525 192.35 394.355 192.18 394.345 191.81 L 394.345 190.31 C 394.345 190.31 394.345 190.31 394.345 190.31 C 394.339 189.943 394.041 189.649 393.675 189.65 C 393.306 189.649 393.009 189.951 393.015 190.32 L 393.015 191.89 C 392.999 192.366 393.197 192.824 393.555 193.14 C 393.914 193.451 394.379 193.612 394.855 193.59 Z" style="fill: rgb(172, 172, 172);" transform="matrix(1.0000000000000002, 0, 0, 1.0000000000000002, 7.105427357601002e-15, 0)"/>
  <path class="cls-3" d="M 420.265 199.73 C 419.021 198.309 417.2 197.53 415.315 197.61 C 412.241 197.61 409.681 199.156 407.635 202.25 L 407.585 191.34 C 407.585 190.447 406.618 189.888 405.845 190.335 C 405.486 190.542 405.265 190.925 405.265 191.34 L 405.325 207.34 L 405.245 207.64 L 401.815 207.64 L 400.015 207.64 C 398.44 207.855 397.097 206.503 397.325 204.93 L 397.265 196.39 C 397.347 195.5 396.437 194.855 395.625 195.228 C 395.178 195.433 394.909 195.899 394.955 196.39 L 394.955 204.93 C 395.206 206.499 393.883 207.872 392.305 207.68 L 390.955 207.68 C 389.38 207.895 388.037 206.543 388.265 204.97 L 388.205 196.45 C 388.121 195.545 387.09 195.07 386.348 195.595 C 386.067 195.794 385.886 196.106 385.855 196.45 L 385.925 204.89 C 385.925 206.78 385.065 207.73 383.295 207.74 L 374.295 207.8 C 372.535 207.8 371.645 206.88 371.635 204.99 L 371.635 200.65 C 371.635 200.65 371.635 200.58 371.635 200.55 C 371.551 199.645 370.52 199.17 369.778 199.695 C 369.497 199.894 369.316 200.206 369.285 200.55 L 369.285 205.22 C 369.235 206.434 369.63 207.625 370.395 208.57 C 371.269 209.557 372.547 210.091 373.865 210.02 L 383.595 209.95 C 384.94 210.013 386.245 209.483 387.165 208.5 C 388.063 209.446 389.331 209.954 390.635 209.89 L 390.735 209.89 L 392.265 209.89 L 392.705 209.89 C 394.05 209.948 395.352 209.41 396.265 208.42 C 397.161 209.391 398.433 209.927 399.755 209.89 L 401.825 209.89 L 417.715 209.77 C 418.878 209.83 420.01 209.381 420.815 208.54 C 421.591 207.56 421.973 206.326 421.885 205.08 L 421.885 204.21 C 421.917 202.567 421.34 200.971 420.265 199.73 Z M 419.505 205 C 419.575 205.692 419.432 206.39 419.095 207 C 418.684 207.422 418.1 207.629 417.515 207.56 L 407.675 207.63 L 407.675 207.14 C 408.226 205.383 409.123 203.754 410.315 202.35 C 411.534 200.787 413.384 199.846 415.365 199.78 C 416.411 199.734 417.431 200.121 418.185 200.85 C 419.081 201.736 419.564 202.959 419.515 204.22 L 419.505 205 Z" style="fill: rgb(172, 172, 172);" transform="matrix(1.0000000000000002, 0, 0, 1.0000000000000002, 7.105427357601002e-15, 0)"/>
  <path class="cls-3" d="M 377.955 212.79 C 376.915 212.79 376.266 213.915 376.785 214.815 C 377.027 215.232 377.472 215.49 377.955 215.49 C 378.994 215.49 379.643 214.365 379.124 213.465 C 378.882 213.047 378.437 212.79 377.955 212.79 Z" style="fill: rgb(172, 172, 172);" transform="matrix(1.0000000000000002, 0, 0, 1.0000000000000002, 7.105427357601002e-15, 0)"/>
  <path class="cls-3" d="M 394.475 212.67 C 393.435 212.67 392.786 213.795 393.305 214.695 C 393.547 215.112 393.992 215.37 394.475 215.37 C 395.514 215.37 396.163 214.245 395.644 213.345 C 395.403 212.927 394.957 212.67 394.475 212.67 Z" style="fill: rgb(172, 172, 172);" transform="matrix(1.0000000000000002, 0, 0, 1.0000000000000002, 7.105427357601002e-15, 0)"/>
  <path class="cls-3" d="M 397.955 212.65 C 396.915 212.657 396.274 213.787 396.8 214.683 C 397.327 215.579 398.626 215.57 399.139 214.666 C 399.256 214.46 399.316 214.226 399.315 213.99 C 399.315 213.242 398.702 212.638 397.955 212.65 Z" style="fill: rgb(172, 172, 172);" transform="matrix(1.0000000000000002, 0, 0, 1.0000000000000002, 7.105427357601002e-15, 0)"/>
  <path class="cls-3" d="M 302.485 195.13 C 300.439 195.139 298.469 195.905 296.955 197.28 C 296.404 197.595 296.402 198.388 296.95 198.707 C 297.205 198.855 297.519 198.856 297.775 198.71 C 298.886 197.839 300.253 197.358 301.665 197.34 C 303.845 197.34 304.941 198.42 304.955 200.58 L 304.955 200.74 L 303.265 200.74 C 301.366 200.643 299.48 201.098 297.835 202.05 C 296.602 202.844 295.885 204.235 295.955 205.7 C 295.902 206.923 296.37 208.112 297.245 208.97 C 298.192 209.807 299.432 210.235 300.695 210.16 C 302.408 210.231 304.065 209.543 305.225 208.28 C 305.225 208.36 305.225 208.82 305.225 208.9 C 305.14 209.835 306.099 210.511 306.951 210.117 C 307.42 209.901 307.701 209.413 307.655 208.9 L 307.655 201.18 C 307.575 197.126 305.851 195.11 302.485 195.13 Z M 304.955 205.89 C 304.701 206.554 304.219 207.107 303.595 207.45 C 302.928 207.855 302.165 208.073 301.385 208.08 C 300.689 208.117 300.007 207.872 299.495 207.4 C 299.004 206.9 298.747 206.218 298.785 205.52 C 298.785 203.6 300.365 202.62 303.565 202.6 L 304.955 202.6 L 304.955 205.89 Z M 315.155 208.59 C 315.155 208.59 315.155 208.59 315.155 208.59 C 315.155 209.621 314.038 210.266 313.145 209.75 C 312.73 209.511 312.475 209.068 312.475 208.59 L 312.335 196.48 C 312.335 196.48 312.335 196.48 312.335 196.41 C 312.335 195.378 313.451 194.733 314.345 195.249 C 314.759 195.488 315.015 195.931 315.015 196.41 L 315.015 196.48 L 315.155 208.59 Z M 314.805 190.3 C 315.119 190.591 315.297 191.001 315.295 191.43 C 315.307 191.863 315.141 192.282 314.835 192.59 C 314.537 192.905 314.119 193.08 313.685 193.07 C 313.256 193.089 312.84 192.921 312.545 192.61 C 312.242 192.3 312.077 191.882 312.085 191.45 C 312.076 191.026 312.242 190.617 312.545 190.32 C 312.833 190.008 313.24 189.834 313.665 189.84 C 314.077 189.832 314.475 189.986 314.775 190.27 L 314.805 190.3 Z M 331.605 197.3 C 330.406 195.772 328.543 194.919 326.605 195.01 C 325.036 194.94 323.536 195.656 322.605 196.92 L 322.605 191.24 C 322.605 191.24 322.605 191.18 322.605 191.14 C 322.605 190.108 321.488 189.463 320.595 189.979 C 320.18 190.218 319.925 190.661 319.925 191.14 L 320.045 208.7 C 320.044 209.444 320.651 210.045 321.395 210.04 C 322.168 209.966 322.746 209.295 322.705 208.52 C 323.106 208.95 323.593 209.29 324.135 209.52 C 326.464 210.529 329.175 210 330.955 208.19 C 332.511 206.575 333.311 204.377 333.155 202.14 C 333.207 200.376 332.649 198.649 331.575 197.25 L 331.605 197.3 Z M 329.145 206.43 C 328.429 207.406 327.285 207.977 326.075 207.96 C 325.297 207.96 324.54 207.711 323.915 207.25 C 323.308 206.859 322.869 206.257 322.685 205.56 L 322.685 199.91 C 322.904 199.111 323.382 198.407 324.045 197.91 C 325.563 196.708 327.754 196.896 329.045 198.34 C 329.957 199.531 330.412 201.011 330.325 202.51 C 330.369 203.899 329.943 205.263 329.115 206.38 L 329.145 206.43 Z M 294.955 192.35 L 288.565 192.35 L 288.675 208.66 C 288.679 208.683 288.679 208.706 288.675 208.73 C 288.675 209.846 287.466 210.543 286.5 209.985 C 286.051 209.726 285.775 209.248 285.775 208.73 C 285.775 208.73 285.775 208.73 285.775 208.66 L 285.665 192.35 L 279.745 192.4 L 279.665 192.4 C 278.733 192.4 278.151 191.391 278.617 190.585 C 278.833 190.21 279.232 189.98 279.665 189.98 L 279.745 189.98 L 294.955 189.94 C 295.878 190.059 296.326 191.134 295.761 191.874 C 295.565 192.13 295.275 192.298 294.955 192.34 L 294.955 192.35 Z" style="fill: rgb(172, 172, 172);" transform="matrix(1.0000000000000002, 0, 0, 1.0000000000000002, 7.105427357601002e-15, 0)"/>
  <path class="cls-4" d="M 382.835 133.01 C 377.925 129.09 369.585 128.25 363.835 131.11 C 360.488 132.927 357.62 135.51 355.465 138.65 C 348.915 147.41 348.865 169.37 348.865 170.3 C 348.865 170.3 348.805 175.88 348.785 182.55 L 348.865 193.23 L 349.095 198.14 C 345.041 200.98 345.583 207.144 350.07 209.234 C 354.35 211.228 359.248 208.082 359.215 203.36 C 359.21 200.964 357.862 198.773 355.725 197.69 L 355.445 191.95 L 355.345 185.67 L 355.345 185.19 C 355.345 177.04 355.405 170.04 355.405 169.98 C 355.405 164.1 356.405 147.49 360.975 141.34 C 362.59 138.95 364.736 136.965 367.245 135.54 C 368.725 134.853 370.343 134.511 371.975 134.54 C 374.578 134.46 377.134 135.244 379.245 136.77 C 382.994 139.77 385.288 144.225 385.555 149.02 C 385.785 153.19 384.655 159.56 377.955 166.28 C 373.835 170.41 369.415 174.5 364.835 178.44 C 362.765 180.22 360.415 182.09 358.045 183.84 L 357.435 184.29 L 357.365 184.35 L 357.365 190.77 C 359.095 189.68 360.585 188.68 361.805 187.77 C 364.145 186.09 366.335 184.25 368.395 182.49 C 372.965 178.56 377.695 174.49 381.975 170.2 C 387.125 165.04 390.435 158.4 391.035 151.99 C 391.795 144.666 388.688 137.476 382.835 133.01 Z M 356.255 203.66 C 356.27 206.238 353.488 207.867 351.247 206.591 C 349.006 205.314 348.987 202.091 351.212 200.788 C 351.72 200.491 352.297 200.333 352.885 200.33 C 354.735 200.318 356.244 201.809 356.255 203.66 Z" style="fill: url('#linear-gradient');" transform="matrix(1.0000000000000002, 0, 0, 1.0000000000000002, 7.105427357601002e-15, 0)"/>
  <path class="cls-5" d="M 346.615 183.89 C 331.375 173.05 327.105 167.79 327.105 167.79 C 322.212 163.03 319.514 156.454 319.655 149.63 C 319.701 145.091 321.733 140.801 325.215 137.89 C 327.106 136.518 329.369 135.751 331.705 135.69 C 335.825 135.41 339.035 137.3 342.705 142.14 C 343.836 143.501 345.796 143.825 347.305 142.9 C 348.034 142.461 348.542 141.735 348.705 140.9 C 348.845 140.121 348.645 139.32 348.155 138.7 C 344.715 134.23 339.685 129.19 331.215 129.7 C 327.408 129.833 323.736 131.143 320.705 133.45 C 315.92 137.361 313.088 143.171 312.955 149.35 C 312.828 157.799 316.188 165.927 322.245 171.82 L 322.325 171.91 C 329.382 179.566 337.599 186.066 346.675 191.17 L 346.615 183.89 Z" style="fill: url('#linear-gradient-2');" transform="matrix(1.0000000000000002, 0, 0, 1.0000000000000002, 7.105427357601002e-15, 0)"/>
</svg>